<svg xmlns="http://www.w3.org/2000/svg" xmlns:xlink="http://www.w3.org/1999/xlink" width="45" height="45" viewBox="0 0 45 45">
  <defs>
    <clipPath id="clip-path">
      <rect id="Rectangle_16773" data-name="Rectangle 16773" width="45" height="45" transform="translate(385 2166)" fill="#4d4d4d"/>
    </clipPath>
  </defs>
  <g id="Mask_Group_15" data-name="Mask Group 15" transform="translate(-385 -2166)" clip-path="url(#clip-path)">
    <g id="_1inch" data-name="1inch" transform="translate(384.826 2167.083)">
      <path id="Path_7994" data-name="Path 7994" d="M10.894,23.564l1.19-8.9L1.758,7.536l9.435,3.179,2.228-3.4,8.136-5.022,17.934,9.828.929,15-7.99,11.044-6.315.963,3.266-5.947V27.452l-2.375-4.471-2.413-1.59L20.883,25.2v4.028l-2.9,2.7-3.68.443-1.63.918L10,32.436l-1.114-3.99,2.006-2.805Z" fill="#fff"/>
      <path id="Path_7995" data-name="Path 7995" d="M27.382,7.46a18.893,18.893,0,0,0-4.119-.3s-.707,3.249-5.087,4.1A7.9,7.9,0,0,0,27.382,7.46Z" fill="#94a6c3"/>
      <path id="Path_7996" data-name="Path 7996" d="M29.164,36.939a14.243,14.243,0,0,0,4.979-7.276c.038-.108.369-.3.592-.443.369-.222.745-.405.815-.7a15.5,15.5,0,0,0,.223-2.622c0-.329-.337-.665-.669-.994-.261-.222-.522-.481-.522-.665a14.015,14.015,0,0,0-4.418-8.79l-.261.26a13.757,13.757,0,0,1,4.31,8.568,1.875,1.875,0,0,0,.63.887c.261.222.56.557.56.7a14.944,14.944,0,0,1-.223,2.546c-.038.146-.369.3-.63.443-.369.184-.707.367-.777.665a13.661,13.661,0,0,1-5.647,7.65c.484-1.032,2.005-4.395,2.82-6.1L30.8,25.6l-4.718-4.541-2.674.367L20.474,26.16s1.375,1.735-.56,3.768a8.8,8.8,0,0,1-3.381,2.438l-1.375-.741a14.437,14.437,0,0,1,1.859-1.811c1.076-.887,2.152-.963,2.152-1.919.045-2-2.114-1.45-2.114-1.45l-.783.741-.331,2.736-1.63,2.033-.185-.038-2.674-.589s1.636-.849,1.9-1.811c.261-.925-.522-3.99-.56-4.173a4.028,4.028,0,0,1,1.114,1.7,13.385,13.385,0,0,1,1.6-3.325c.223-.146,3.228-1.735,3.228-1.735l-1,2.622.745-.405,1.783-4.357a8.774,8.774,0,0,1,3.043-.849c2.337-.038,5.793-2.882,4.234-7.979.446.184,8.168,4.028,9.505,11.564C38.039,28.37,34.735,33.8,29.164,36.939Z" fill="#94a6c3"/>
      <path id="Path_7997" data-name="Path 7997" d="M20.322,8.27a3.147,3.147,0,0,0,.522-2.476l-2.489,3.66A2.885,2.885,0,0,0,20.322,8.27Z" fill="#1b314f"/>
      <path id="Path_7998" data-name="Path 7998" d="M11.972,28.256l.3-1.476s-1.229,2.141-1.337,2.438c-.115.336.076.925.554.887a1.471,1.471,0,0,0,1.076-1.254A.53.53,0,0,0,11.972,28.256Z" fill="#1b314f"/>
      <path id="Path_7999" data-name="Path 7999" d="M34.024,4.762s1.859.076,3.788.3A18.91,18.91,0,0,0,26,.665,16.2,16.2,0,0,0,18.089,2.66L19.541.367A7.715,7.715,0,0,0,11.7,5.908a30.228,30.228,0,0,1-1-3.179,6.657,6.657,0,0,0-1.6,6.985C5.649,8.46.715,6.719.524,6.687c-.261-.038-.337.076-.337.076s-.076.108.146.3c.414.323,8.213,6.054,9.925,7.162-.369,1.33-.369,1.957,0,2.584a2.565,2.565,0,0,1,.484,1.919c-.076.627-.745,6.06-.891,6.725s-1.706,3.027-1.636,3.73,1.038,3.692,1.9,4.028a11.974,11.974,0,0,0,3.228.7,1.322,1.322,0,0,0,.853-.222c.63-.551.815-.665,1.261-.665h.108c.185,0,.407.038.668.038a2.834,2.834,0,0,0,1.929-.627c.815-.811,2.228-1.919,2.674-2.438a3.417,3.417,0,0,0,.707-2.622,3.5,3.5,0,0,1,.929-2.438c.707-.925,2.006-2.584,2.006-2.584a10.064,10.064,0,0,1,4.164,8.081c0,5.763-5.049,10.417-11.288,10.417a12.007,12.007,0,0,1-2.82-.329,22.01,22.01,0,0,0,7.245,1.33A12.116,12.116,0,0,0,28.2,40.34a18.435,18.435,0,0,1-2.044,2.14h.038A15.21,15.21,0,0,0,36.52,35.831s-.261,1.849-.592,3.1c9.238-6.909,7.678-15.553,7.64-15.845.076.108,1.006,1.216,1.483,1.811C46.541,9.676,34.024,4.762,34.024,4.762ZM19.8,29.074c-.146.184-.777.741-1.222,1.146s-.93.811-1.3,1.184a1.3,1.3,0,0,1-.891.222H15.275a19.668,19.668,0,0,1,2.75-2.806c.669-.443,1.006-.887.592-1.659s-1.483-.589-1.483-.589a3.7,3.7,0,0,1,1.191-.26,2.3,2.3,0,0,0-2.006.405c-.446.405-.369,1.849-.554,2.767-.185.963-.815,1.444-1.783,2.33a1.838,1.838,0,0,1-1.191.627,12.75,12.75,0,0,1-1.9-.481,10.538,10.538,0,0,1-1.076-2.736,14.944,14.944,0,0,1,.777-1.59,6.939,6.939,0,0,0,.783-1.773c.146-.627.63-4.509.815-6.13.484.627,1.152,1.665,1,2.33a3.1,3.1,0,0,0-.076-3.584,4.049,4.049,0,0,1-.407-3.027c.369-1.254,1.706-4.731,1.706-4.731s.446.779,1.076.627,5.717-7.758,5.717-7.758,1.375,2.989-.076,5.174A6.114,6.114,0,0,1,18.2,11.348a5.585,5.585,0,0,0,3.934-1c.777,1.811,1.522,3.692,1.56,3.952-.115.26-1.6,3.806-1.744,4.028a3.726,3.726,0,0,1-.968.3,5.262,5.262,0,0,0-1.152.405,41.127,41.127,0,0,0-2.006,5.06A3.083,3.083,0,0,0,16,25.382a5.274,5.274,0,0,1,1.674-.367,3.323,3.323,0,0,1,2.527,2.4v.076A2.273,2.273,0,0,1,19.8,29.074Zm-3.489.443a3.414,3.414,0,0,0,.337-1.551c.038-.26.108-.741.407-.811s1.006.038,1.006.551c0,.481-.522.589-.891.924C16.905,28.884,16.383,29.441,16.313,29.517Zm14.815-7.061a17.639,17.639,0,0,0,.3-4.838,13.529,13.529,0,0,1,2.6,6.649,1.875,1.875,0,0,0,.63.887c.261.222.56.519.56.7a15.084,15.084,0,0,1-.223,2.552c-.038.108-.369.3-.63.443-.369.184-.707.367-.777.665a13.767,13.767,0,0,1-4.9,7.131C32.134,33.063,33.8,27.149,31.128,22.456ZM28.791,36.977a14.217,14.217,0,0,0,5.087-7.352c.038-.108.369-.3.592-.443.369-.184.745-.405.815-.7a15.5,15.5,0,0,0,.223-2.622c0-.329-.337-.665-.668-.994-.185-.222-.484-.481-.484-.665a14.445,14.445,0,0,0-3.043-7.352c-.745-4.433-3.712-5.8-3.788-5.839a6.741,6.741,0,0,1,.668,6.13c-1.375,3.287-4.9,2.774-5.2,2.805-.3,0-1.445,1.476-2.9,4.211a4.028,4.028,0,0,0-1.859-.108c.668-1.849,1.674-4.471,1.859-4.693a5.678,5.678,0,0,1,1.006-.329c.707-.184,1.038-.3,1.152-.443.076-.114.446-.963.815-1.849a8.425,8.425,0,0,0,1.26-.114,13.707,13.707,0,0,0,.783-2.1c0-.184-1.452-3.768-2.005-5.136a8.515,8.515,0,0,0,.777-1.07,15.1,15.1,0,0,1,4.909,28.668Z" fill="#1b314f"/>
      <path id="Path_8000" data-name="Path 8000" d="M18.909,17.029a1.609,1.609,0,0,0-.968-2.584c.337-.773.815-2.324.815-2.324s-3.788,5.909-4.119,6.022-.668-1.184-.668-1.184c-.707,2.7,1.191,3.065,1.413,2.217A9.509,9.509,0,0,0,18.909,17.029Z" fill="#1b314f"/>
      <path id="Path_8001" data-name="Path 8001" d="M15.681,18.466l1.929-3.287s1.114.557.554,1.444A7.2,7.2,0,0,1,15.681,18.466Z" fill="#ffd923"/>
      <path id="Path_8002" data-name="Path 8002" d="M39.561,33.691a21.674,21.674,0,0,1-1.929,2.255,19.756,19.756,0,0,0,.038-17.877c.337.336.668.7.968,1.032A11.647,11.647,0,0,1,39.561,33.691Z" fill="#d82122"/>
      <path id="Path_8003" data-name="Path 8003" d="M44.013,21.9A22.216,22.216,0,0,0,34.731,10.2,18.967,18.967,0,0,0,23.959,7.168h-.076a2.557,2.557,0,0,1,.554-.146,23.84,23.84,0,0,1,4.125-.849A12.257,12.257,0,0,1,39.188,9.79l.076.076A17.313,17.313,0,0,1,44.013,21.9Z" fill="#d82122"/>
      <path id="Path_8004" data-name="Path 8004" d="M33.542,3.617c-5.532-1.032-9.1-.519-11.663.443a10.923,10.923,0,0,0-.56-1.368c-.77.925-1.592,2.033-2.107,2.736a7.524,7.524,0,0,0-2.005,1.887A7.727,7.727,0,0,1,23.3,1.958a15.216,15.216,0,0,1,2.674-.222A17.559,17.559,0,0,1,33.542,3.617Z" fill="#d82122"/>
      <path id="Path_8005" data-name="Path 8005" d="M13.083,10.709c-4.342-.146-2.9-5.174-2.82-5.465C10.263,5.281,10.556,9.2,13.083,10.709Z" fill="#d82122"/>
      <path id="Path_8006" data-name="Path 8006" d="M17.352,1.66c-3.342,1.995-2.674,6.757-2.674,6.757C11.482,3.585,17.091,1.774,17.352,1.66Z" fill="#d82122"/>
      <path id="Path_8007" data-name="Path 8007" d="M11.863,12.039a.74.74,0,0,1,.185,1c-.146.26-.369.222-.707.076-.446-.222-3.12-1.773-5.532-3.363,2.75.963,5.532,1.995,5.978,2.216C11.787,11.969,11.825,12.007,11.863,12.039Z" fill="#fff"/>
    </g>
  </g>
</svg>
