<svg xmlns="http://www.w3.org/2000/svg" xmlns:xlink="http://www.w3.org/1999/xlink" width="35" height="35" viewBox="0 0 35 35">
  <defs>
    <clipPath id="clip-path">
      <rect id="Rectangle_16813" data-name="Rectangle 16813" width="35" height="35" transform="translate(562 4611)" fill="#ff48a1" stroke="#707070" stroke-width="1"/>
    </clipPath>
  </defs>
  <g id="Mask_Group_67" data-name="Mask Group 67" transform="translate(-562 -4611)" clip-path="url(#clip-path)">
    <path id="dapps" d="M15,3.75H8.333A4.583,4.583,0,0,0,3.75,8.333V15a4.583,4.583,0,0,0,4.583,4.583H15A4.583,4.583,0,0,0,19.583,15V8.333A4.583,4.583,0,0,0,15,3.75ZM8.333,6.25H15a2.083,2.083,0,0,1,2.083,2.083V15A2.083,2.083,0,0,1,15,17.083H8.333A2.083,2.083,0,0,1,6.25,15V8.333A2.083,2.083,0,0,1,8.333,6.25Zm25.833-2.5H27.5a4.583,4.583,0,0,0-4.583,4.583V15A4.583,4.583,0,0,0,27.5,19.583h6.667A4.583,4.583,0,0,0,38.75,15V8.333A4.583,4.583,0,0,0,34.167,3.75ZM27.5,6.25h6.667A2.083,2.083,0,0,1,36.25,8.333V15a2.083,2.083,0,0,1-2.083,2.083H27.5A2.083,2.083,0,0,1,25.417,15V8.333A2.083,2.083,0,0,1,27.5,6.25ZM15,22.083H8.333A4.583,4.583,0,0,0,3.75,26.667v6.667a4.583,4.583,0,0,0,4.583,4.583H15a4.583,4.583,0,0,0,4.583-4.583V26.667A4.583,4.583,0,0,0,15,22.083Zm-6.667,2.5H15a2.083,2.083,0,0,1,2.083,2.083v6.667A2.083,2.083,0,0,1,15,35.417H8.333A2.083,2.083,0,0,1,6.25,33.333V26.667a2.083,2.083,0,0,1,2.083-2.083Z" transform="translate(558.25 4607.666)" fill="#ff48a1"/>
    <path id="dapps-2" data-name="dapps" d="M15,3.75H8.333A4.583,4.583,0,0,0,3.75,8.333V15a4.583,4.583,0,0,0,4.583,4.583H15A4.583,4.583,0,0,0,19.583,15V8.333A4.583,4.583,0,0,0,15,3.75ZM8.333,6.25H15a2.083,2.083,0,0,1,2.083,2.083V15A2.083,2.083,0,0,1,15,17.083H8.333A2.083,2.083,0,0,1,6.25,15V8.333A2.083,2.083,0,0,1,8.333,6.25Zm25.833-2.5H27.5a4.583,4.583,0,0,0-4.583,4.583V15A4.583,4.583,0,0,0,27.5,19.583h6.667A4.583,4.583,0,0,0,38.75,15V8.333A4.583,4.583,0,0,0,34.167,3.75ZM27.5,6.25h6.667A2.083,2.083,0,0,1,36.25,8.333V15a2.083,2.083,0,0,1-2.083,2.083H27.5A2.083,2.083,0,0,1,25.417,15V8.333A2.083,2.083,0,0,1,27.5,6.25Zm6.667,16.184H27.5a4.583,4.583,0,0,0-4.583,4.583v6.667A4.583,4.583,0,0,0,27.5,38.267h6.667a4.583,4.583,0,0,0,4.583-4.583V27.017a4.583,4.583,0,0,0-4.583-4.583Zm-6.667,2.5h6.667a2.083,2.083,0,0,1,2.083,2.083v6.667a2.083,2.083,0,0,1-2.083,2.083H27.5a2.083,2.083,0,0,1-2.083-2.083V27.017A2.083,2.083,0,0,1,27.5,24.934Z" transform="translate(558.25 4607.666)" fill="#ff48a1"/>
  </g>
</svg>
