<svg xmlns="http://www.w3.org/2000/svg" xmlns:xlink="http://www.w3.org/1999/xlink" width="45" height="45" viewBox="0 0 45 45">
  <defs>
    <clipPath id="clip-path">
      <rect id="Rectangle_16799" data-name="Rectangle 16799" width="45" height="45" transform="translate(385 3085)" fill="#4d4d4d"/>
    </clipPath>
  </defs>
  <g id="Mask_Group_32" data-name="Mask Group 32" transform="translate(-385 -3085)" clip-path="url(#clip-path)">
    <g id="avalancheBridge" transform="translate(381.906 3082.308)">
      <path id="Path_8111" data-name="Path 8111" d="M25.594,47.692a22.5,22.5,0,1,0-22.5-22.5A22.5,22.5,0,0,0,25.594,47.692Z" fill="#fff"/>
      <path id="Path_8112" data-name="Path 8112" d="M13.516,35.386h5.278a6.71,6.71,0,0,0,1.827-.125,3.024,3.024,0,0,0,1.226-.711,6.684,6.684,0,0,0,1.015-1.523l6.911-12.089a6.685,6.685,0,0,0,.787-1.624,3.021,3.021,0,0,0,0-1.4,6.677,6.677,0,0,0-.789-1.623h0l-2.665-4.654c-.631-1.1-.946-1.652-1.346-1.856a1.512,1.512,0,0,0-1.378,0c-.4.205-.715.756-1.344,1.858L11.481,31.886h0c-.62,1.086-.93,1.629-.9,2.074a1.509,1.509,0,0,0,.688,1.183A4.779,4.779,0,0,0,13.516,35.386Zm17.99,0h6.12a4.811,4.811,0,0,0,2.273-.245,1.51,1.51,0,0,0,.685-1.192c.022-.448-.3-.993-.935-2.084l-3.065-5.241h0c-.629-1.075-.943-1.613-1.341-1.814a1.512,1.512,0,0,0-1.367,0c-.4.2-.711.74-1.339,1.816l-3.055,5.241c-.636,1.09-.953,1.636-.931,2.083a1.509,1.509,0,0,0,.685,1.19A4.807,4.807,0,0,0,31.506,35.386Z" fill="#181b1d" fill-rule="evenodd"/>
    </g>
  </g>
</svg>
