<svg xmlns="http://www.w3.org/2000/svg" xmlns:xlink="http://www.w3.org/1999/xlink" width="45" height="45" viewBox="0 0 45 45">
  <defs>
    <clipPath id="clip-path">
      <rect id="Rectangle_16799" data-name="Rectangle 16799" width="45" height="45" transform="translate(385 3085)" fill="#4d4d4d"/>
    </clipPath>
  </defs>
  <g id="Mask_Group_43" data-name="Mask Group 43" transform="translate(-385 -3085)" clip-path="url(#clip-path)">
    <path id="celer" d="M23.267,45.33a22.5,22.5,0,1,0-22.5-22.5A22.5,22.5,0,0,0,23.267,45.33Zm2.984-35.036c-.312-.058-.623-.117-.933-.182h-2.3a3.751,3.751,0,0,1-.448.1,12.224,12.224,0,0,0-8.994,5.408,12.517,12.517,0,0,0-1.808,9.489c.748,4.217,3.017,7.4,7.036,8.971,5.3,2.065,10.261,1.386,14.613-2.491.37-.329.727-.67,1.1-1.016l-3.088-3.216-.876.82a8.861,8.861,0,0,1-7.738,2.506A7.374,7.374,0,0,1,16.59,25.8a8.112,8.112,0,0,1,1.423-8.6,8.313,8.313,0,0,1,10.554-1.535,17.806,17.806,0,0,1,2.022,1.456c.309.245.62.492.943.733L34.618,14.9a13.3,13.3,0,0,0-6.305-4.14A19.727,19.727,0,0,0,26.251,10.294Z" transform="translate(384.233 3084.67)" fill="#fff" fill-rule="evenodd"/>
  </g>
</svg>
