<svg xmlns="http://www.w3.org/2000/svg" xmlns:xlink="http://www.w3.org/1999/xlink" width="45" height="45" viewBox="0 0 45 45">
  <defs>
    <clipPath id="clip-path">
      <rect id="Rectangle_16773" data-name="Rectangle 16773" width="45" height="45" transform="translate(385 2166)" fill="#4d4d4d"/>
    </clipPath>
    <clipPath id="clip-path-2">
      <rect id="Rectangle_16796" data-name="Rectangle 16796" width="45" height="45" transform="translate(0 0.822)" fill="#fff"/>
    </clipPath>
  </defs>
  <g id="Mask_Group_10" data-name="Mask Group 10" transform="translate(-385 -2166)" clip-path="url(#clip-path)">
    <g id="celo" transform="translate(385 2165.178)" clip-path="url(#clip-path-2)">
      <path id="Path_7986" data-name="Path 7986" d="M26.632,31.428A12.737,12.737,0,1,0,13.895,18.691,12.737,12.737,0,0,0,26.632,31.428Zm0,4.632A17.368,17.368,0,1,1,44,18.691,17.369,17.369,0,0,1,26.632,36.059Z" fill="#35d07f"/>
      <path id="Path_7987" data-name="Path 7987" d="M17.368,40.691A12.737,12.737,0,1,0,4.632,27.954,12.737,12.737,0,0,0,17.368,40.691Zm0,4.632A17.368,17.368,0,1,1,34.737,27.954,17.369,17.369,0,0,1,17.368,45.322Z" fill="#fbcc5c"/>
      <path id="Path_7988" data-name="Path 7988" d="M27.2,36.05a12.7,12.7,0,0,0,2.525-5,12.7,12.7,0,0,0,5-2.525,17.291,17.291,0,0,1-1.35,6.176A17.29,17.29,0,0,1,27.2,36.05ZM14.274,15.6a12.7,12.7,0,0,0-5,2.525,17.291,17.291,0,0,1,1.35-6.176,17.291,17.291,0,0,1,6.176-1.35A12.7,12.7,0,0,0,14.274,15.6Z" fill="#5ea33b"/>
    </g>
  </g>
</svg>
