<svg xmlns="http://www.w3.org/2000/svg" width="19.996" height="20" viewBox="0 0 19.996 20">
  <g id="关闭_1_" data-name="关闭 (1)" transform="translate(-229.7 -198.353)">
    <path id="Path_8728" data-name="Path 8728" d="M249.335,198.844a1.039,1.039,0,0,1,.071,1.4l-.071.079L231.5,218.042a1.056,1.056,0,0,1-1.453.042,1.04,1.04,0,0,1-.106-1.44l.072-.079,17.835-17.721a1.056,1.056,0,0,1,1.487,0Z" transform="translate(0)" fill="#959eb1"/>
    <path id="Path_8729" data-name="Path 8729" d="M249.386,216.427a1.043,1.043,0,0,1,.038,1.443,1.056,1.056,0,0,1-1.447.109l-.08-.071-17.857-17.763A1.043,1.043,0,0,1,230,198.7a1.056,1.056,0,0,1,1.451-.106l.08.072,17.857,17.762Z" fill="#959eb1"/>
  </g>
</svg>
