<svg xmlns="http://www.w3.org/2000/svg" xmlns:xlink="http://www.w3.org/1999/xlink" width="20" height="20" viewBox="0 0 20 20">
  <defs>
    <clipPath id="clip-path">
      <rect id="Rectangle_16943" data-name="Rectangle 16943" width="20" height="20" transform="translate(1291 145)" fill="#959eb1" stroke="#707070" stroke-width="1"/>
    </clipPath>
  </defs>
  <g id="Crypto" transform="translate(-1291 -145)" clip-path="url(#clip-path)">
    <g id="积分" transform="translate(1292.667 145)">
      <path id="Path_8730" data-name="Path 8730" d="M19.3,12.713l-.015.015a8.731,8.731,0,0,1-5.955,1.989,8.712,8.712,0,0,1-5.977-2.01.714.714,0,0,0-1.005,0A4.173,4.173,0,0,0,5,15.678c0,3.071,3.781,5.394,8.333,5.394s8.333-2.322,8.333-5.394a4.175,4.175,0,0,0-1.351-2.97.714.714,0,0,0-1.012.006ZM6.927,14.224l.081.062a10.715,10.715,0,0,0,6.325,1.86l.223,0A10.641,10.641,0,0,0,19.641,14.3l.1-.075.034.048a2.479,2.479,0,0,1,.465,1.405c0,2.1-3.041,3.965-6.9,3.965s-6.9-1.868-6.9-3.965a2.479,2.479,0,0,1,.465-1.405l.034-.048Z" transform="translate(-5 -5.833)" fill="#959eb1"/>
      <path id="Path_8731" data-name="Path 8731" d="M19.3,14.142l-.015.015a8.731,8.731,0,0,1-5.955,1.989,8.712,8.712,0,0,1-5.977-2.01.714.714,0,0,0-1.005,0A4.173,4.173,0,0,0,5,17.106C5,20.178,8.781,22.5,13.333,22.5s8.333-2.322,8.333-5.394a4.175,4.175,0,0,0-1.351-2.97.714.714,0,0,0-1.012.006ZM6.927,15.653l.081.062a10.715,10.715,0,0,0,6.325,1.86l.223,0a10.641,10.641,0,0,0,6.084-1.844l.1-.075.034.048a2.479,2.479,0,0,1,.465,1.405c0,2.1-3.041,3.965-6.9,3.965s-6.9-1.868-6.9-3.965A2.479,2.479,0,0,1,6.893,15.7l.034-.048ZM13.333,2.5C8.782,2.5,5,4.746,5,7.738s3.782,5.238,8.333,5.238,8.333-2.246,8.333-5.238S17.884,2.5,13.333,2.5Zm0,1.429c3.865,0,6.9,1.8,6.9,3.81s-3.04,3.81-6.9,3.81-6.9-1.8-6.9-3.81,3.04-3.81,6.9-3.81Z" transform="translate(-5 -2.5)" fill="#959eb1"/>
    </g>
  </g>
</svg>
