<svg xmlns="http://www.w3.org/2000/svg" xmlns:xlink="http://www.w3.org/1999/xlink" width="45" height="45" viewBox="0 0 45 45">
  <defs>
    <clipPath id="clip-path">
      <rect id="Rectangle_16799" data-name="Rectangle 16799" width="45" height="45" transform="translate(385 3085)" fill="#4d4d4d"/>
    </clipPath>
    <clipPath id="clip-path-2">
      <rect id="Rectangle_16804" data-name="Rectangle 16804" width="45" height="45" transform="translate(0.511 0.33)" fill="#fff"/>
    </clipPath>
  </defs>
  <g id="Mask_Group_36" data-name="Mask Group 36" transform="translate(-385 -3085)" clip-path="url(#clip-path)">
    <g id="deBridge" transform="translate(384.489 3084.67)" clip-path="url(#clip-path-2)">
      <path id="Path_8113" data-name="Path 8113" d="M40.871,35.764H33.083A2.574,2.574,0,0,1,30.567,33.7a9.907,9.907,0,0,0-.518-1.7A1.562,1.562,0,0,1,30.675,30l3.118-1.8a12.869,12.869,0,0,1,1.064,2.3,1.617,1.617,0,0,0,1.921,1.006l3.415-.907A20.469,20.469,0,0,1,40.871,35.764Z" fill="#fff"/>
      <path id="Path_8114" data-name="Path 8114" d="M34.963,21.568a19.97,19.97,0,0,0-9.047-5.224L24.624,21.2a15.058,15.058,0,0,1,6.77,3.933Z" fill="#fff" fill-rule="evenodd"/>
      <path id="Path_8115" data-name="Path 8115" d="M7.638,28.143a15.328,15.328,0,0,0-2.031,7.62H3.313a2.689,2.689,0,0,1-1.964-.941,2.677,2.677,0,0,1-.564-2.008,21.147,21.147,0,0,1,1.664-5.555,1.625,1.625,0,0,1,2.292-.788Z" fill="#fff"/>
      <path id="Path_8116" data-name="Path 8116" d="M40.871,35.764a20.468,20.468,0,0,0-.677-5.162l3.18-.844a1.636,1.636,0,0,1,2.09,1.305c.117.606.213,1.222.286,1.845a2.68,2.68,0,0,1-.669,2.032,2.6,2.6,0,0,1-1.894.825Z" fill="#abda02"/>
      <path id="Path_8117" data-name="Path 8117" d="M31.393,25.132l3.569-3.565L37.335,19.2a1.642,1.642,0,0,1,2.426.117,23.852,23.852,0,0,1,1.908,2.5,1.669,1.669,0,0,1-.586,2.249l-2.919,1.683-4.369,2.52A15.125,15.125,0,0,0,31.393,25.132Z" fill="#abda02"/>
      <path id="Path_8118" data-name="Path 8118" d="M30.839,18.372a20.1,20.1,0,0,0-13.8-2.355A1.667,1.667,0,0,1,15.2,14.926L14.715,13.1a1.617,1.617,0,0,1,1.2-2,24.932,24.932,0,0,1,4.828-.477A25.233,25.233,0,0,1,31.8,13.182a1.621,1.621,0,0,1,.748,2.24Z" fill="#abda02"/>
      <path id="Path_8119" data-name="Path 8119" d="M20.685,20.707a16.46,16.46,0,0,1,3.939.492l-.9,3.372a1.646,1.646,0,0,1-1.8,1.186,9.567,9.567,0,0,0-1.182-.071,10.1,10.1,0,0,0-9.885,8.04,2.806,2.806,0,0,1-.883,1.448,2.591,2.591,0,0,1-1.614.591H5.608A15.052,15.052,0,0,1,20.685,20.707Z" fill="#abda02"/>
    </g>
  </g>
</svg>
