<svg xmlns="http://www.w3.org/2000/svg" xmlns:xlink="http://www.w3.org/1999/xlink" width="20" height="20" viewBox="0 0 20 20">
  <defs>
    <clipPath id="clip-path">
      <rect id="Rectangle_16862" data-name="Rectangle 16862" width="20" height="20" transform="translate(360 8512)" fill="#fff" stroke="#707070" stroke-width="1"/>
    </clipPath>
  </defs>
  <g id="Discard" transform="translate(-360 -8512)" clip-path="url(#clip-path)">
    <path id="discord" d="M14.766,14.363s-.621-.736-1.136-1.379a5.391,5.391,0,0,0,3.1-2.034,10.134,10.134,0,0,1-1.967,1.005,11.229,11.229,0,0,1-2.482.736,12.249,12.249,0,0,1-4.438-.012,13.84,13.84,0,0,1-2.518-.736,9.123,9.123,0,0,1-1.253-.584c-.047-.035-.105-.047-.152-.082-.035-.012-.047-.035-.07-.047-.3-.175-.48-.292-.48-.292a5.333,5.333,0,0,0,3,2.022c-.515.654-1.148,1.414-1.148,1.414A6.228,6.228,0,0,1,0,11.757,22.848,22.848,0,0,1,2.471,1.788,8.526,8.526,0,0,1,7.283,0l.176.21A11.559,11.559,0,0,0,2.951,2.443s.375-.21,1.007-.491A12.6,12.6,0,0,1,7.845.877,2.5,2.5,0,0,1,8.138.842a14.014,14.014,0,0,1,8.607,1.6A11.428,11.428,0,0,0,12.482.269L12.717,0a8.516,8.516,0,0,1,4.813,1.8A22.847,22.847,0,0,1,20,11.769,6.25,6.25,0,0,1,14.766,14.363ZM6.8,6.381A1.822,1.822,0,0,0,5.059,8.274,1.829,1.829,0,0,0,6.8,10.168,1.822,1.822,0,0,0,8.548,8.274,1.814,1.814,0,0,0,6.8,6.381Zm6.253,0a1.822,1.822,0,0,0-1.745,1.893,1.829,1.829,0,0,0,1.745,1.893A1.822,1.822,0,0,0,14.8,8.274,1.822,1.822,0,0,0,13.056,6.381Z" transform="translate(360 8514.813)" fill="#fff"/>
  </g>
</svg>
