<svg xmlns="http://www.w3.org/2000/svg" xmlns:xlink="http://www.w3.org/1999/xlink" width="20" height="20" viewBox="0 0 20 20">
  <defs>
    <clipPath id="clip-path">
      <rect id="Rectangle_16863" data-name="Rectangle 16863" width="20" height="20" transform="translate(360 8620)" fill="#fff" stroke="#707070" stroke-width="1"/>
    </clipPath>
  </defs>
  <g id="Mask_Group_83" data-name="Mask Group 83" transform="translate(-360 -8620)" clip-path="url(#clip-path)">
    <path id="gitbook" d="M9,12.31A.594.594,0,1,1,8.4,12.9.593.593,0,0,1,9,12.31Zm9.186-3.624a.594.594,0,1,1,.594-.594A.615.615,0,0,1,18.183,8.686Zm0-2.406a1.813,1.813,0,0,0-1.812,1.812,1.769,1.769,0,0,0,.094.562L10.5,11.841A1.81,1.81,0,0,0,9,11.06a1.859,1.859,0,0,0-1.625,1L2,9.248a2.328,2.328,0,0,1-.937-2.093,1.131,1.131,0,0,1,.406-.906A.544.544,0,0,1,2,6.28l.031.031c1.437.75,6.093,3.187,6.28,3.281a.969.969,0,0,0,1-.062l9.623-5a.44.44,0,0,0,.312-.406.483.483,0,0,0-.281-.406c-.562-.25-1.406-.656-2.218-1.031C15,1.875,13,.937,12.122.469a1.47,1.47,0,0,0-1.468,0l-.219.094c-3.968,2-9.217,4.593-9.529,4.78A2.094,2.094,0,0,0,0,7.123,3.385,3.385,0,0,0,1.53,10.217l5.686,2.937A1.84,1.84,0,0,0,9,14.716a1.807,1.807,0,0,0,1.812-1.781L17.058,9.56A1.828,1.828,0,1,0,18.183,6.28Z" transform="translate(360.004 8622.506)" fill="#fff"/>
  </g>
</svg>
