<svg xmlns="http://www.w3.org/2000/svg" xmlns:xlink="http://www.w3.org/1999/xlink" width="40" height="40" viewBox="0 0 40 40">
  <defs>
    <clipPath id="clip-path">
      <rect id="Rectangle_16839" data-name="Rectangle 16839" width="40" height="40" transform="translate(439 6057)" fill="#f5f5f5" stroke="#707070" stroke-width="1"/>
    </clipPath>
  </defs>
  <g id="Mask_Group_114" data-name="Mask Group 114" transform="translate(-439 -6057)" clip-path="url(#clip-path)">
    <path id="fairyproof" d="M19.824.352,32.266,5A5.1,5.1,0,0,1,35.9,9.986v.121l-.013.119c-.473,4.028-1,8.051-1.42,12.082a14.843,14.843,0,0,1-2.823,7.977,19.6,19.6,0,0,1-5.059,4.166c-2.436,1.542-4.885,2.99-7.27,4.62L17.948,40l-1.365-.931c-2.386-1.63-4.837-3.078-7.271-4.62a19.769,19.769,0,0,1-5.061-4.166A14.9,14.9,0,0,1,1.43,22.307C1.008,18.275.5,14.252.017,10.224L0,10.106V9.987A5.1,5.1,0,0,1,3.631,5Q9.856,2.685,16.073.354a5.17,5.17,0,0,1,3.751,0ZM6.376,29.145l.061.072.1.111.086.091.065.069c.254.266.525.522.815.773a50.089,50.089,0,0,1,4.24-12.811c2.084-4.1,4.815-7.467,8.17-8.476A25.73,25.73,0,0,1,23,8.313,11.342,11.342,0,0,0,28.7,6.17L18.886,2.505a2.6,2.6,0,0,0-1.874,0L4.483,7.192A2.757,2.757,0,0,0,2.4,9.963q.706,6.046,1.423,12.1a12.872,12.872,0,0,0,1.992,6.369l.066.091.065.088.065.085.08.1.07.085.068.081.075.088ZM9.9,31.837c-.03.163-.023.174.121.267,2.036,1.32,4.649,2.791,7.933,5.037,9.487-6.476,13.271-6.5,14.136-15.078L33.414,10.7v-.049c.03-.248.056-.489.083-.707a2.576,2.576,0,0,0-1.069-2.219,8.247,8.247,0,0,1-2.4,1.855A24.792,24.792,0,0,1,21.8,12.39c-2.5.461-3.83,1.656-4.151,3.213-.042.2-.063.259.2.258.875,0,3.271-1.6,3.271-1.6l-1.732,1.9c-.677-.086-1.624-.106-1.866.214-.892,1.179-1.219,2.219-.642,3.035.523-1.446,2.037-1.865,4.079-1.738a6.189,6.189,0,0,0,4.758-1.056c-.9,6.52-11.788.892-15.363,13.337a.384.384,0,0,0-.017.054v.026c-.03.106-.058.215-.086.326A13.82,13.82,0,0,0,9.9,31.842ZM33.508,9.955v0Z" transform="translate(441.051 6056.998)" fill="#f5f5f5" fill-rule="evenodd"/>
  </g>
</svg>
