<svg xmlns="http://www.w3.org/2000/svg" xmlns:xlink="http://www.w3.org/1999/xlink" width="20" height="20" viewBox="0 0 20 20">
  <defs>
    <clipPath id="clip-path">
      <rect id="Rectangle_16943" data-name="Rectangle 16943" width="20" height="20" transform="translate(1291 145)" fill="#959eb1" stroke="#707070" stroke-width="1"/>
    </clipPath>
  </defs>
  <g id="Faq" transform="translate(-1291 -145)" clip-path="url(#clip-path)">
    <g id="帮助_1_" data-name="帮助 (1)" transform="translate(1291 145)">
      <path id="Path_8745" data-name="Path 8745" d="M11.744,1.744a10,10,0,1,0,10,10A10,10,0,0,0,11.744,1.744Zm0,1.4a8.6,8.6,0,1,1-8.6,8.6,8.6,8.6,0,0,1,8.6-8.6Z" transform="translate(-1.744 -1.744)" fill="#959eb1"/>
      <path id="Path_8746" data-name="Path 8746" d="M15.917,16.376v-.182a1.917,1.917,0,0,1,.716-1.5q.912-.795,1.12-1.029a2.585,2.585,0,0,0,.482-1.6,2.351,2.351,0,0,0-.781-1.875A2.962,2.962,0,0,0,15.4,9.5a3.135,3.135,0,0,0-2.279.82,2.983,2.983,0,0,0-.847,2.266h1.485a2.129,2.129,0,0,1,.326-1.276,1.375,1.375,0,0,1,1.224-.534,1.41,1.41,0,0,1,1.042.365,1.492,1.492,0,0,1,.013,1.94l-.156.182a6.965,6.965,0,0,0-1.524,1.654,2.785,2.785,0,0,0-.26,1.276v.182h1.5Zm-.755,2.6a1,1,0,0,0,.716-.273.923.923,0,0,0,.3-.716.956.956,0,0,0-.287-.7,1.013,1.013,0,0,0-.729-.273,1.027,1.027,0,0,0-.716.273,1.006,1.006,0,0,0,0,1.407,1.031,1.031,0,0,0,.716.287Z" transform="translate(-5.253 -4.329)" fill="#959eb1"/>
    </g>
  </g>
</svg>
