<svg xmlns="http://www.w3.org/2000/svg" xmlns:xlink="http://www.w3.org/1999/xlink" width="45" height="45" viewBox="0 0 45 45">
  <defs>
    <clipPath id="clip-path">
      <rect id="Rectangle_16773" data-name="Rectangle 16773" width="45" height="45" transform="translate(385 2166)" fill="#f5f5f5"/>
    </clipPath>
    <clipPath id="clip-path-2">
      <rect id="Rectangle_16795" data-name="Rectangle 16795" width="45" height="45" transform="translate(0 0.822)" fill="#f5f5f5"/>
    </clipPath>
  </defs>
  <g id="Mask_Group_6" data-name="Mask Group 6" transform="translate(-385 -2166)" clip-path="url(#clip-path)">
    <g id="fuse" transform="translate(385 2165.178)" clip-path="url(#clip-path-2)">
      <g id="Group_373" data-name="Group 373">
        <path id="Path_7968" data-name="Path 7968" d="M22.207,37.356a8.72,8.72,0,0,1-4.025-.908L5.952,30.054l-3.665,2.2C.545,33.3.575,34.907,2.355,35.837L19.27,44.682a6.472,6.472,0,0,0,2.936.64,6.867,6.867,0,0,0,3.443-.851l16.56-9.952c1.742-1.047,1.712-2.651-.068-3.581L38.624,29.1,26.859,36.17A9.155,9.155,0,0,1,22.207,37.356Z" fill="#f5f5f5" fill-rule="evenodd"/>
      </g>
      <path id="Path_7969" data-name="Path 7969" d="M42.25,20.35l-2.936-1.558-6.838,4.169-1.174.716-1.173.716-3.2,1.952a9.065,9.065,0,0,1-4.664,1.207,8.647,8.647,0,0,1-4.035-.923L14.56,24.682l-1.214-.643L12.132,23.4,5.375,19.809,2.291,21.69c-1.747,1.065-1.717,2.7.067,3.643L5.885,27.2l1.214.644,1.213.644,11.007,5.839a6.408,6.408,0,0,0,2.944.651,6.8,6.8,0,0,0,3.451-.866L36.3,27.665l1.174-.716,1.173-.716,3.675-2.24C44.064,22.928,44.034,21.3,42.25,20.35Z" fill="#f5f5f5" fill-rule="evenodd"/>
      <path id="Path_7970" data-name="Path 7970" d="M42.25,10.8,25.289,1.963a6.493,6.493,0,0,0-2.944-.64,6.9,6.9,0,0,0-3.451.851l-16.6,9.948C.544,13.168.574,14.771,2.358,15.7l2.936,1.531,1.214.633,1.214.633L14.48,22.02l1.214.632,1.214.633,2.411,1.257a6.5,6.5,0,0,0,2.944.64,6.9,6.9,0,0,0,3.451-.851l1.986-1.19,1.174-.7,1.173-.7,6.838-4.1,1.174-.7,1.173-.7,3.085-1.848C44.064,13.337,44.034,11.734,42.25,10.8Z" fill="#f5f5f5" fill-rule="evenodd"/>
    </g>
  </g>
</svg>
