<svg xmlns="http://www.w3.org/2000/svg" xmlns:xlink="http://www.w3.org/1999/xlink" width="20" height="20" viewBox="0 0 20 20">
  <defs>
    <clipPath id="clip-path">
      <rect id="Rectangle_16861" data-name="Rectangle 16861" width="20" height="20" transform="translate(360 8548)" fill="#fff" stroke="#707070" stroke-width="1"/>
    </clipPath>
  </defs>
  <g id="GitHub" transform="translate(-360 -8548)" clip-path="url(#clip-path)">
    <g id="github-2" data-name="github" transform="translate(360 8549.51)">
      <path id="Path_8623" data-name="Path 8623" d="M13.455,9.916c-.781,0-1.414.877-1.414,1.959s.633,1.959,1.414,1.959,1.413-.877,1.413-1.959S14.235,9.916,13.455,9.916Z" fill="#fff"/>
      <path id="Path_8624" data-name="Path 8624" d="M17.686,0a9.691,9.691,0,0,1,.689,4.818A5.9,5.9,0,0,1,20,9.031c0,7.822-6.48,7.948-8.116,7.948l-1.669,0H9.783l-1.667,0C6.48,16.979,0,16.854,0,9.031A5.9,5.9,0,0,1,1.625,4.818,9.687,9.687,0,0,1,2.314,0,12.218,12.218,0,0,1,7.261,2.263,11.743,11.743,0,0,1,10,2a11.762,11.762,0,0,1,2.738.259A12.221,12.221,0,0,1,17.686,0ZM2.677,11.537c0,3.99,3.193,4.48,7.292,4.48h.061c4.1,0,7.293-.49,7.293-4.48a3.378,3.378,0,0,0-1.137-2.579c-.973-.9-2.439-.791-4.156-.67-.636.045-1.307.093-2,.093H9.97c-.693,0-1.363-.047-2-.093-1.717-.122-3.182-.225-4.156.67A3.377,3.377,0,0,0,2.677,11.537Z" fill="#fff" fill-rule="evenodd"/>
      <path id="Path_8625" data-name="Path 8625" d="M6.543,9.916c-.78,0-1.413.877-1.413,1.959s.633,1.959,1.413,1.959,1.414-.877,1.414-1.959S7.324,9.916,6.543,9.916Z" fill="#fff"/>
    </g>
  </g>
</svg>
