<svg xmlns="http://www.w3.org/2000/svg" xmlns:xlink="http://www.w3.org/1999/xlink" width="45" height="45" viewBox="0 0 45 45">
  <defs>
    <clipPath id="clip-path">
      <rect id="Rectangle_16773" data-name="Rectangle 16773" width="45" height="45" transform="translate(385 2166)" fill="#4d4d4d"/>
    </clipPath>
  </defs>
  <g id="Mask_Group_5" data-name="Mask Group 5" transform="translate(-385 -2166)" clip-path="url(#clip-path)">
    <path id="gnosis" d="M13.248,25.938a5.814,5.814,0,0,0,3.583-1.223l-8.2-8.2A5.737,5.737,0,0,0,7.408,20.1,5.822,5.822,0,0,0,13.248,25.938Zm24.395-5.855A5.81,5.81,0,0,0,36.419,16.5l-8.2,8.2A5.742,5.742,0,0,0,31.8,25.921,5.822,5.822,0,0,0,37.643,20.083Zm4.135-8.9-3.635,3.634A8.266,8.266,0,0,1,26.5,26.455l-3.98,3.978-3.98-3.978A8.265,8.265,0,0,1,6.891,14.813L5.03,12.953,3.256,11.179A22.5,22.5,0,1,0,45,22.839,21.954,21.954,0,0,0,41.777,11.179ZM38.8,7.3a22.488,22.488,0,0,0-32.561,0Q5.4,8.19,4.651,9.147L22.5,26.989,40.347,9.13A15.27,15.27,0,0,0,38.8,7.3ZM22.517,3.258A19.288,19.288,0,0,1,36.351,8.992L22.517,22.821,8.683,8.992A19.317,19.317,0,0,1,22.517,3.258Z" transform="translate(385 2165.67)" fill="#04795b"/>
  </g>
</svg>
