<svg xmlns="http://www.w3.org/2000/svg" xmlns:xlink="http://www.w3.org/1999/xlink" width="40" height="40" viewBox="0 0 40 40">
  <defs>
    <clipPath id="clip-path">
      <rect id="Rectangle_16830" data-name="Rectangle 16830" width="40" height="40" transform="translate(439 6056)" fill="#fff" stroke="#707070" stroke-width="1"/>
    </clipPath>
  </defs>
  <g id="Mask_Group_49" data-name="Mask Group 49" transform="translate(-439 -6056)" clip-path="url(#clip-path)">
    <path id="harmony" d="M31.429,0a8.493,8.493,0,0,0-8.7,7.956v8.879c-.87,0-1.739.115-2.733.115a20.709,20.709,0,0,0-2.733.115V7.956c0-4.382-3.975-7.956-8.82-7.841A8.331,8.331,0,0,0,0,7.956V29.174a8.357,8.357,0,0,0,8.82,7.841c4.72-.115,8.447-3.575,8.447-7.841V20.295c.87,0,1.739-.115,2.733-.115a20.722,20.722,0,0,0,2.733-.115v8.994a8.357,8.357,0,0,0,8.82,7.841C36.273,36.784,40,33.325,40,29.058V7.956C40,3.575,36.149,0,31.429,0ZM8.7,3.229a4.867,4.867,0,0,1,5.093,4.728V17.3a32.679,32.679,0,0,0-7.329,1.96A13.753,13.753,0,0,0,3.6,20.871V7.956A4.941,4.941,0,0,1,8.7,3.229Zm5.093,25.945A4.867,4.867,0,0,1,8.7,33.9,4.867,4.867,0,0,1,3.6,29.174V27.1c0-1.845,1.615-3.69,4.348-4.728a25.021,25.021,0,0,1,5.963-1.614ZM31.429,33.9a4.867,4.867,0,0,1-5.093-4.728v-9.34a32.681,32.681,0,0,0,7.329-1.96,13.758,13.758,0,0,0,2.857-1.614V29.174A4.944,4.944,0,0,1,31.429,33.9Zm.745-19.026a25.022,25.022,0,0,1-5.963,1.614V7.956A4.867,4.867,0,0,1,31.3,3.229,4.867,4.867,0,0,1,36.4,7.956v2.076C36.522,11.992,34.907,13.722,32.174,14.875Z" transform="translate(439 6057.492)" fill="#fff"/>
  </g>
</svg>
