<svg xmlns="http://www.w3.org/2000/svg" xmlns:xlink="http://www.w3.org/1999/xlink" width="45" height="45" viewBox="0 0 45 45">
  <defs>
    <clipPath id="clip-path">
      <rect id="Rectangle_16799" data-name="Rectangle 16799" width="45" height="45" transform="translate(385 3085)" fill="#4d4d4d"/>
    </clipPath>
  </defs>
  <g id="Mask_Group_40" data-name="Mask Group 40" transform="translate(-385 -3085)" clip-path="url(#clip-path)">
    <g id="liFi" transform="translate(382.684 3082.604)">
      <path id="Path_8120" data-name="Path 8120" d="M22.87,32.9,9.535,35.992a1.17,1.17,0,0,0-.851,1.1v9.18a1.081,1.081,0,0,0,1.378,1.1l18.6-4.306a1.079,1.079,0,0,0,.77-1.584L26.072,34.53a1.674,1.674,0,0,1,1.175-2.478l12.16-2.925a2.17,2.17,0,0,0,1.581-1.99V18.647a1.065,1.065,0,0,0-1.378-1.1l-17.55,4.184a1.573,1.573,0,0,0-1.094,2.315l3.08,6.377A1.683,1.683,0,0,1,22.87,32.9Z" fill="#fff"/>
      <path id="Path_8121" data-name="Path 8121" d="M14.075,9.955,17.561,17.1a1.427,1.427,0,0,1-1.013,2.112l-6.445,1.5a1.989,1.989,0,0,0-1.459,1.828v7.677a1.81,1.81,0,0,0,2.31,1.828l6-1.381a1.95,1.95,0,0,0,1.459-1.828l.04-7.88A2.645,2.645,0,0,1,20.4,18.526l19.658-4.712a1.17,1.17,0,0,0,.851-1.1V3.537a1.065,1.065,0,0,0-1.378-1.1L14.845,8.371A1.079,1.079,0,0,0,14.075,9.955Z" fill="#fff"/>
    </g>
  </g>
</svg>
