<svg id="Logo" xmlns="http://www.w3.org/2000/svg" width="185.502" height="27" viewBox="0 0 185.502 27">
  <path id="Path_17" data-name="Path 17" d="M689.594,469.139H695.1v9.883s-.081,3.443,3.078,3.443a3.083,3.083,0,0,0,3.4-3.321v-10h5.508v12.232a6.747,6.747,0,0,1-6.44,6.6H696.6a6.461,6.461,0,0,1-3.807-.932c-1.517-1.09-3.2-3-3.2-5.306Z" transform="translate(-689.594 -460.985)" fill="#fdfdfd"/>
  <path id="Path_18" data-name="Path 18" d="M801.99,469.139v18.846h5.455v-9.423l7.128,9.423h5.508V469.139h-5.562v9.423l-7.236-9.423Z" transform="translate(-776.446 -460.985)" fill="#fdfdfd"/>
  <rect id="Rectangle_4" data-name="Rectangle 4" width="5.67" height="5.292" transform="translate(52.869)" fill="#e6397a"/>
  <rect id="Rectangle_5" data-name="Rectangle 5" width="5.67" height="18.846" transform="translate(52.869 8.154)" fill="#fdfdfd"/>
  <path id="Path_19" data-name="Path 19" d="M998.947,483.666V469.139h-5.67v18.846H1007.8v-4.319Z" transform="translate(-924.26 -460.985)" fill="#fdfdfd"/>
  <path id="Path_20" data-name="Path 20" d="M1100.445,487.893h5.272l4.9-12.528h.263l4.941,12.528h5.124l-7.837-18.873h-4.833Z" transform="translate(-1007.073 -460.893)" fill="#fdfdfd"/>
  <path id="Path_21" data-name="Path 21" d="M1213.7,469.02l4.415,7.155,4.131-7.155h5.63l-7.25,12.7v6.035h-5.508v-5.913l-7.088-12.826Z" transform="translate(-1090.207 -460.893)" fill="#fdfdfd"/>
  <rect id="Rectangle_6" data-name="Rectangle 6" width="14.784" height="4.253" transform="translate(144.635 7.952)" fill="#fdfdfd"/>
  <rect id="Rectangle_7" data-name="Rectangle 7" width="14.784" height="4.253" transform="translate(144.635 15.437)" fill="#e6397a"/>
  <rect id="Rectangle_8" data-name="Rectangle 8" width="14.784" height="4.253" transform="translate(144.635 22.614)" fill="#fdfdfd"/>
  <path id="Path_22" data-name="Path 22" d="M1429.02,477.86v9.3h5.589V482.3h2.795l3.119,4.86h5.954l-3.483-5.346a8.47,8.47,0,0,0,3.2-6.48,6.822,6.822,0,0,0-6.966-7.088H1429.02v4.739h9.194a2.286,2.286,0,0,1,2.43,1.5,2.488,2.488,0,0,1-2.025,3.375Z" transform="translate(-1260.974 -460.296)" fill="#fdfdfd"/>
</svg>
