<svg xmlns="http://www.w3.org/2000/svg" xmlns:xlink="http://www.w3.org/1999/xlink" width="45" height="45" viewBox="0 0 45 45">
  <defs>
    <clipPath id="clip-path">
      <rect id="Rectangle_16799" data-name="Rectangle 16799" width="45" height="45" transform="translate(385 3085)" fill="#4d4d4d"/>
    </clipPath>
    <clipPath id="clip-path-2">
      <rect id="Rectangle_16808" data-name="Rectangle 16808" width="45" height="45" transform="translate(0.767 0.33)" fill="#fff"/>
    </clipPath>
  </defs>
  <g id="Mask_Group_42" data-name="Mask Group 42" transform="translate(-385 -3085)" clip-path="url(#clip-path)">
    <g id="multichain" transform="translate(384.233 3084.67)" clip-path="url(#clip-path-2)">
      <path id="Path_8124" data-name="Path 8124" d="M1.023,25.519a20.65,20.65,0,0,1,1.086-2.274,20.955,20.955,0,0,1,1.562-1.966L2.353,19.825H7.584v5.22l-1.3-1.186a3.662,3.662,0,0,0-1.8,3.516A3.438,3.438,0,0,0,6.8,30.455a3.607,3.607,0,0,0,4.032-.884c2.948-2.906,5.876-5.838,8.81-8.758l7.328-7.292a5.824,5.824,0,0,1,8.452-.1c.748.7,1.472,1.434,2.186,2.174a1.748,1.748,0,0,1,.178,2.626c-.772.788-1.76.72-2.708-.2-.666-.646-1.312-1.312-1.974-1.962-1.288-1.26-2.434-1.264-3.708,0-4.912,4.88-9.84,9.744-14.711,14.665-1.584,1.6-3.2,3.044-5.494,3.518H6.99a32.781,32.781,0,0,1-3.548-1.8,7.246,7.246,0,0,1-2.42-3.946Z" fill="#fff"/>
      <path id="Path_8125" data-name="Path 8125" d="M37.685,34.245c-2.338-.538-3.97-2.09-5.57-3.74-2.322-2.4-4.718-4.716-7.124-7.108l2.752-2.5a12.6,12.6,0,0,0,1,1.27q3.638,3.662,7.314,7.29A3.681,3.681,0,1,0,41.3,24.309c-.274-.286-.56-.562-.848-.836a1.852,1.852,0,0,0-.294-.18l-1.338,1.234V19.271H44.1c-.482.514-.89.954-1.6,1.718a7.085,7.085,0,0,1,1.26.822A7.165,7.165,0,0,1,40.131,34.1a.906.906,0,0,0-.252.146Z" fill="#fff"/>
      <path id="Path_8126" data-name="Path 8126" d="M21.934,15.529l-2.6,2.578c-.574-.684-1.118-1.43-1.76-2.078a2.241,2.241,0,0,0-3.62,0c-.848.826-1.674,1.684-2.532,2.5a1.9,1.9,0,0,1-2.738.216c-.736-.754-.64-1.788.262-2.7s1.768-1.78,2.676-2.658a5.734,5.734,0,0,1,8.052-.178C20.458,13.918,21.15,14.722,21.934,15.529Z" fill="#fff"/>
    </g>
  </g>
</svg>
