<svg xmlns="http://www.w3.org/2000/svg" xmlns:xlink="http://www.w3.org/1999/xlink" width="45" height="45" viewBox="0 0 45 45">
  <defs>
    <clipPath id="clip-path">
      <rect id="Rectangle_16773" data-name="Rectangle 16773" width="45" height="45" transform="translate(385 2166)" fill="#4d4d4d"/>
    </clipPath>
  </defs>
  <g id="Mask_Group_3" data-name="Mask Group 3" transform="translate(-385 -2166)" clip-path="url(#clip-path)">
    <g id="okx" transform="translate(385 2165.057)">
      <rect id="Rectangle_16776" data-name="Rectangle 16776" width="4.5" height="4.5" transform="translate(31.5 16.693)" fill="#fff"/>
      <rect id="Rectangle_16777" data-name="Rectangle 16777" width="4.5" height="4.5" transform="translate(31.5 25.693)" fill="#fff"/>
      <rect id="Rectangle_16778" data-name="Rectangle 16778" width="4.5" height="4.5" transform="translate(15.75 25.693)" fill="#fff"/>
      <rect id="Rectangle_16779" data-name="Rectangle 16779" width="4.5" height="4.5" transform="translate(15.75 16.693)" fill="#fff"/>
      <rect id="Rectangle_16780" data-name="Rectangle 16780" width="4.5" height="4.5" transform="translate(15.75 21.193)" fill="#fff"/>
      <rect id="Rectangle_16781" data-name="Rectangle 16781" width="4.5" height="4.5" transform="translate(0 25.693)" fill="#fff"/>
      <rect id="Rectangle_16782" data-name="Rectangle 16782" width="4.5" height="4.5" transform="translate(4.5 25.693)" fill="#fff"/>
      <rect id="Rectangle_16783" data-name="Rectangle 16783" width="4.5" height="4.5" transform="translate(0 16.693)" fill="#fff"/>
      <rect id="Rectangle_16784" data-name="Rectangle 16784" width="4.5" height="4.5" transform="translate(4.5 16.693)" fill="#fff"/>
      <rect id="Rectangle_16785" data-name="Rectangle 16785" width="4.5" height="4.5" transform="translate(0 21.193)" fill="#fff"/>
      <rect id="Rectangle_16786" data-name="Rectangle 16786" width="4.5" height="4.5" transform="translate(9 25.693)" fill="#fff"/>
      <rect id="Rectangle_16787" data-name="Rectangle 16787" width="4.5" height="4.5" transform="translate(9 16.693)" fill="#fff"/>
      <rect id="Rectangle_16788" data-name="Rectangle 16788" width="4.5" height="4.5" transform="translate(9 21.193)" fill="#fff"/>
      <rect id="Rectangle_16789" data-name="Rectangle 16789" width="4.5" height="4.5" transform="translate(20.25 21.193)" fill="#fff"/>
      <rect id="Rectangle_16790" data-name="Rectangle 16790" width="4.5" height="4.5" transform="translate(36 21.193)" fill="#fff"/>
      <rect id="Rectangle_16791" data-name="Rectangle 16791" width="4.5" height="4.5" transform="translate(40.5 16.693)" fill="#fff"/>
      <rect id="Rectangle_16792" data-name="Rectangle 16792" width="4.5" height="4.5" transform="translate(40.5 25.693)" fill="#fff"/>
      <rect id="Rectangle_16793" data-name="Rectangle 16793" width="4.5" height="4.5" transform="translate(24.75 25.693)" fill="#fff"/>
      <rect id="Rectangle_16794" data-name="Rectangle 16794" width="4.5" height="4.5" transform="translate(24.75 16.693)" fill="#fff"/>
    </g>
  </g>
</svg>
