<svg xmlns="http://www.w3.org/2000/svg" xmlns:xlink="http://www.w3.org/1999/xlink" width="45" height="45" viewBox="0 0 45 45">
  <defs>
    <clipPath id="clip-path">
      <rect id="Rectangle_16773" data-name="Rectangle 16773" width="45" height="45" transform="translate(385 2166)" fill="#4d4d4d"/>
    </clipPath>
  </defs>
  <g id="Mask_Group_23" data-name="Mask Group 23" transform="translate(-385 -2166)" clip-path="url(#clip-path)">
    <g id="pancakeswap" transform="translate(384.009 2165.598)">
      <path id="Path_8044" data-name="Path 8044" d="M9.082,7.433A5.942,5.942,0,1,1,20.865,6.308v7.313c.852,0,1.7-.141,2.555-.141a13.9,13.9,0,0,1,2.413.141V6.308A5.97,5.97,0,0,1,31.8.4a6.1,6.1,0,0,1,5.962,7.031L36.2,16.011c5.536,2.391,9.795,6.609,9.795,11.813v3.234c0,4.359-2.839,8.016-6.956,10.406A29.846,29.846,0,0,1,23.42,45.4,29.846,29.846,0,0,1,7.8,41.465C3.83,39.074.991,35.418.991,31.058V27.824c0-5.2,4.117-9.422,9.653-11.813Zm24.984,9.7L35.912,7.011A4.168,4.168,0,0,0,31.8,2.09a4.1,4.1,0,0,0-4.117,4.078v9.281a8.175,8.175,0,0,0-1.845-.141c-.852,0-1.561-.141-2.413-.141a15.573,15.573,0,0,0-2.555.141c-.568,0-1.278.141-1.845.141V6.308a4.089,4.089,0,1,0-8.092.844l1.845,10.125c-5.962,2.25-9.937,6.187-9.937,10.688V31.2c0,6.891,9.227,12.516,20.584,12.516S44,38.09,44,31.2V27.965C44.146,23.324,40.171,19.386,34.067,17.136Z" fill="#633001" fill-rule="evenodd"/>
      <path id="Path_8045" data-name="Path 8045" d="M44.149,31.058c0,6.891-9.227,12.516-20.584,12.516S2.982,37.948,2.982,31.058V27.823H44.291v3.234Z" fill="#fedc90"/>
      <path id="Path_8046" data-name="Path 8046" d="M10.931,7.154a4.089,4.089,0,1,1,8.091-.844v9.281a43.389,43.389,0,0,1,4.4-.281c1.42,0,2.839.141,4.259.281V6.31A4.1,4.1,0,0,1,31.8,2.232a4.243,4.243,0,0,1,4.117,4.922L34.07,17.279c5.962,2.25,10.079,6.187,10.079,10.687,0,6.891-9.227,12.516-20.584,12.516S2.982,34.857,2.982,27.966c0-4.5,3.975-8.437,9.937-10.687Z" fill="#d1884f" fill-rule="evenodd"/>
      <path id="Path_8047" data-name="Path 8047" d="M17.742,26.979c0,1.828-.994,3.375-2.271,3.375S13.2,28.807,13.2,26.979s.994-3.375,2.271-3.375S17.742,25.151,17.742,26.979Z" fill="#633001"/>
      <path id="Path_8048" data-name="Path 8048" d="M33.5,26.979c0,1.828-.994,3.375-2.271,3.375s-2.271-1.547-2.271-3.375.994-3.375,2.271-3.375S33.5,25.151,33.5,26.979Z" fill="#633001"/>
    </g>
  </g>
</svg>
