<svg xmlns="http://www.w3.org/2000/svg" xmlns:xlink="http://www.w3.org/1999/xlink" width="45" height="45" viewBox="0 0 45 45">
  <defs>
    <clipPath id="clip-path">
      <rect id="Rectangle_16773" data-name="Rectangle 16773" width="45" height="45" transform="translate(385 2166)" fill="#4d4d4d"/>
    </clipPath>
  </defs>
  <g id="Mask_Group_25" data-name="Mask Group 25" transform="translate(-385 -2166)" clip-path="url(#clip-path)">
    <g id="pangolin" transform="translate(384.896 2165)">
      <path id="Path_8058" data-name="Path 8058" d="M9.225,33.979c.1.188.168.325.2.386A8.462,8.462,0,0,0,11.95,37.61l.107.067a17.2,17.2,0,0,0,5.7,1.785,8.185,8.185,0,0,1,2.238-4.5,14.567,14.567,0,0,1-4.186.619A14.258,14.258,0,0,1,9.225,33.979Zm17.339-6.652c-1.292-.416-3.228-2.355-6.167-1.652a5.215,5.215,0,0,0-3.539,2.885,5.581,5.581,0,0,0-2.66-1.632,1.543,1.543,0,0,0-1.23.253c-.412.314-.423.325,2.322,6.035l.229.474a.217.217,0,0,0,.015.024l.247.509s.157.534,1.069.281c0,0,6.318-.6,8.722-4.976q.526-1.087.991-2.2ZM1.578,19.7a1.973,1.973,0,0,0-.529-1.6,21,21,0,0,0-.723,4.752,2.563,2.563,0,0,1,1.356.561,11,11,0,0,1-.1-3.711Zm23.794,19.15c-1.031-1.117-1.207-3.2-.517-6.236.055-.238.114-.474.174-.708-.981,1.051-2.616,2.078-3.621,3.051-1.112,1.077-2.512,2.8-2.647,4.651a17.932,17.932,0,0,0,3.367.137A7.7,7.7,0,0,0,25.371,38.845ZM37.277,12.535a9.119,9.119,0,0,1,1.22,1.988c.7,1.327,3,5.1,6.038,4.38a26.592,26.592,0,0,0-.717-3.223c-.021-.064-.043-.128-.067-.194l.011,0a23.109,23.109,0,0,0-1.155-3.059A8.752,8.752,0,0,1,37.277,12.535Zm-3.162-7.8a.508.508,0,0,1,.127.567,10.858,10.858,0,0,1-3.928,4.323,11.458,11.458,0,0,1,5.2,1.254c.664.281,4.128,1.647,6.651.635a.43.43,0,0,1-.024-.046c-.05-.1-.105-.194-.157-.29a21.907,21.907,0,0,0-7.253-7.664A18.3,18.3,0,0,0,27.5,1a6.444,6.444,0,0,1-.391,3.743C30.982,3.044,33.044,3.755,34.115,4.734Zm-7.74,33.654Q28.758,37.3,31.04,36a2.716,2.716,0,0,1-.284-.133c-1.881-1.028-2.933-4.567-3.408-7.659q-.1.263-.214.52a30.334,30.334,0,0,0-1.289,4.119c-.821,3.6-.2,5.01.529,5.539ZM38.542,20.565a14.31,14.31,0,0,1-6.964,1.974,11.567,11.567,0,0,1-3.75-.625c.42,1.684.113,3.382.36,4.916.114.04.232.081.351.117,3.486,1.143,6.193,1.341,7.83.574a3.135,3.135,0,0,0,1.149-.9c1.144-1.441,1.076-4.451,1.022-6.06Z" fill="#ff6b00"/>
      <path id="Path_8059" data-name="Path 8059" d="M33.062,34.727l0,0c2.43-1.434,3.89-4.746,4.4-6.674a4.6,4.6,0,0,1-.667.384A6.81,6.81,0,0,1,33.917,29a18.994,18.994,0,0,1-5.58-1.042c.454,2.979,1.449,6.225,2.907,7.023A1.644,1.644,0,0,0,33.062,34.727ZM27.567,20.734a11.326,11.326,0,0,0,1.271.427c3.068.821,6.315.236,9.656-1.739a11.217,11.217,0,0,0-.918-4.468c-.142-.271-.218-.442-.229-.464h0a7.693,7.693,0,0,0-2.435-2.769A9.93,9.93,0,0,0,29.576,10.7c3.472,1.365,4.064,3.331,4.091,3.426l.024.082a.4.4,0,0,1-.207.468l-.076.038a9.266,9.266,0,0,1-8.22-.064c.508,1.2,1.182,2.805,1.444,3.426l.006,0q.162.371.317.772l.006.015a18.159,18.159,0,0,1,.6,1.875ZM38.881,35.413a9.26,9.26,0,0,1-1.228-4.886,20.752,20.752,0,0,1-.941,1.942l0,0a2.651,2.651,0,0,1-.166.317c-.519,1.019-2.194,4.588-1.416,6.881a2.562,2.562,0,0,0,1.26,1.493A20.89,20.89,0,0,0,40.638,36.8a3.61,3.61,0,0,1-1.757-1.385ZM4.814,30.4a13.727,13.727,0,0,1-2.406-4.18c-.23-.754-1.008-2.172-2.1-2.346a22.171,22.171,0,0,0,.984,6.4A8.061,8.061,0,0,1,4.814,30.4Z" fill="#ff6b00"/>
      <path id="Path_8060" data-name="Path 8060" d="M34.169,39.993a8.5,8.5,0,0,1,.4-5.119q-.455.358-.932.686l0,0-.165.1q-.587.4-1.193.77l0,0c-.238.148-5.726,3.62-3.107,8.576a22.251,22.251,0,0,0,6.392-3.174A3.53,3.53,0,0,1,34.169,39.993ZM44.676,19.912a4.387,4.387,0,0,1-.918.1,5.942,5.942,0,0,1-4.375-2.383l-.012-.014a14.831,14.831,0,0,1,.142,2.072c.015.214.027.427.037.639.107,1.21.528,3.894,2.158,5.334a4.021,4.021,0,0,0,2.994.96c.011-.047.021-.1.031-.159a22.389,22.389,0,0,0,.169-2.75A30.918,30.918,0,0,0,44.676,19.912Z" fill="#ff6b00"/>
      <path id="Path_8061" data-name="Path 8061" d="M41.03,26.419a6.556,6.556,0,0,1-1.637-2.375,23.891,23.891,0,0,1-.433,2.439c-.133.783-.917,5.946.754,8.353a2.555,2.555,0,0,0,1.528,1.089A21.311,21.311,0,0,0,43.2,32.219l.006,0a22.076,22.076,0,0,0,1.344-4.581A4.951,4.951,0,0,1,41.03,26.419ZM9.555,36.588a17.2,17.2,0,0,1-1.307-2.3,6.191,6.191,0,0,0-6.628-3.046,22.329,22.329,0,0,0,3.5,6.283A4.365,4.365,0,0,1,9.555,36.588Zm12.858,4.16a20.368,20.368,0,0,1-4.906-.288c-1.23-.13-4.657-.256-7.055,1.937a22.156,22.156,0,0,0,9.336,3.435,6.4,6.4,0,0,1,2.029-4.494c.2-.214.4-.409.595-.59ZM11.461,38.5c-.56-.336-3.872-2.189-5.659-.224A20.632,20.632,0,0,0,9.6,41.8,8.515,8.515,0,0,1,13.952,39.6,9.984,9.984,0,0,1,11.461,38.5ZM28.892,38.3c-1.251.628-4.619,1.768-6.546,3.968A5.264,5.264,0,0,0,20.806,45.9a20.132,20.132,0,0,0,4.271-.037l.3-.034.122-.015a21.941,21.941,0,0,0,2.677-.516A6.444,6.444,0,0,1,28.892,38.3ZM9.123,26.849a.76.76,0,0,0,.522.119,12.132,12.132,0,0,0,2.66-.474,34.063,34.063,0,0,0,5.3-1.831c.236-.11.839-.4,1.535-.747a2.85,2.85,0,0,1,.564.924c3.966-.866,5.475.854,7.134,1.5a10.382,10.382,0,0,0-.128-4.863A17.724,17.724,0,0,1,19.5,15a9.549,9.549,0,0,0-3.078,3.3c-1.669,3.374-3.429,6.408-6.575,7.375-.538.166-.889.3-.935.69a.538.538,0,0,0,.214.48Z" fill="#ff6b00"/>
      <path id="Path_8062" data-name="Path 8062" d="M11.787,19.679c.92-.662,2.578-1.846,3.158-2.322C16,16.49,18.918,14.185,19.654,13.6a.177.177,0,0,1,.268.061,15.414,15.414,0,0,0,6.424,6.5q-.268-.828-.641-1.684l0,0-.869-2.052-.549-1.3c-.311-.728-.552-1.3-.622-1.452l-.662-1.515a.054.054,0,0,1,.082-.064l1.342.966c.038.027,3.91,2.732,8.062.956-.421-.671-1.663-2.075-4.982-2.918l-1.133-.288a.09.09,0,0,1-.015-.168l1.057-.5c.044-.02,4.28-2.039,5.72-4.894-1.895-1.3-5.2.122-7.066,1.12L23.949,7.516a.053.053,0,0,1-.064-.081L25.447,5.6a5.558,5.558,0,0,0,1.037-4.5,8.781,8.781,0,0,0-7.65,2.84l-.619.648a.095.095,0,0,1-.162-.056l-.259-2.567A10.44,10.44,0,0,0,11.543,10.8a29.1,29.1,0,0,1-1.016,5.414l0,0-.061.215q-.243.762-.526,1.431a6.874,6.874,0,0,1-.516.926c-.34.51-.188.85-.046.99A2.46,2.46,0,0,0,11.787,19.679Zm4.6-9.619a.7.7,0,0,1,.978.979.372.372,0,0,1-.114.114.7.7,0,0,1-.979-.978A.42.42,0,0,1,16.385,10.06Zm-3.629,0a.7.7,0,0,1,.978.979.371.371,0,0,1-.114.114.7.7,0,0,1-.978-.978A.414.414,0,0,1,12.756,10.06Z" fill="#ff6b00"/>
    </g>
  </g>
</svg>
