<svg xmlns="http://www.w3.org/2000/svg" xmlns:xlink="http://www.w3.org/1999/xlink" width="45" height="45" viewBox="0 0 45 45">
  <defs>
    <clipPath id="clip-path">
      <rect id="Rectangle_16773" data-name="Rectangle 16773" width="45" height="45" transform="translate(385 2166)" fill="#4d4d4d"/>
    </clipPath>
  </defs>
  <g id="Mask_Group_1" data-name="Mask Group 1" transform="translate(-385 -2166)" clip-path="url(#clip-path)">
    <path id="polygon" d="M34.779,12.3a3,3,0,0,0-2.82,0l-6.58,3.865-4.465,2.459-6.462,3.865a3,3,0,0,1-2.82,0L6.581,19.442a2.853,2.853,0,0,1-1.41-2.459V11.127a2.887,2.887,0,0,1,1.41-2.459L11.633,5.74a3,3,0,0,1,2.82,0l5.052,3.045a2.853,2.853,0,0,1,1.41,2.459v3.865l4.465-2.576V8.55a2.886,2.886,0,0,0-1.41-2.459l-9.4-5.5a3,3,0,0,0-2.82,0L2.116,6.208A2.575,2.575,0,0,0,.706,8.55V19.559a2.887,2.887,0,0,0,1.41,2.459l9.517,5.5a3,3,0,0,0,2.82,0l6.462-3.748L25.38,21.2l6.462-3.748a3,3,0,0,1,2.82,0l5.052,2.928a2.853,2.853,0,0,1,1.41,2.459v5.856a2.887,2.887,0,0,1-1.41,2.459l-4.935,2.928a3,3,0,0,1-2.82,0l-5.052-2.928a2.853,2.853,0,0,1-1.41-2.459V24.946l-4.465,2.576v3.865a2.887,2.887,0,0,0,1.41,2.459l9.517,5.5a3,3,0,0,0,2.82,0l9.517-5.5a2.853,2.853,0,0,0,1.41-2.459V20.262A2.887,2.887,0,0,0,44.3,17.8Z" transform="translate(384.294 2168.531)" fill="#8247e5"/>
  </g>
</svg>
