<svg xmlns="http://www.w3.org/2000/svg" xmlns:xlink="http://www.w3.org/1999/xlink" width="45" height="45" viewBox="0 0 45 45">
  <defs>
    <clipPath id="clip-path">
      <rect id="Rectangle_16773" data-name="Rectangle 16773" width="45" height="45" transform="translate(385 2166)" fill="#4d4d4d"/>
    </clipPath>
  </defs>
  <g id="Mask_Group_26" data-name="Mask Group 26" transform="translate(-385 -2166)" clip-path="url(#clip-path)">
    <g id="quickswap" transform="translate(385 2165.042)">
      <path id="Path_8063" data-name="Path 8063" d="M22.5,45.958A22.5,22.5,0,1,0,0,23.458,22.5,22.5,0,0,0,22.5,45.958Z" fill="#fff"/>
      <path id="Path_8064" data-name="Path 8064" d="M23.447,23.3a8.919,8.919,0,0,0-2.538-.952,12.6,12.6,0,0,0-3.553-.326,6.342,6.342,0,0,0-2.456.53,2.155,2.155,0,0,0-.269.155,1,1,0,0,0-.27,1.59c.094.125.2.243.325.4a5.476,5.476,0,0,1-1.129-.148A6.012,6.012,0,0,1,10.91,23.4a3.992,3.992,0,0,1-.966-1.05,1.084,1.084,0,0,1,.433-.336c.308-.129.586-.314.891-.452a13.263,13.263,0,0,1,4.3-1.15,13.711,13.711,0,0,1,1.789-.09,19.854,19.854,0,0,1,5.191.9c.433.135.863.282,1.314.437a.538.538,0,0,0-.121-.287,6.183,6.183,0,0,0-.623-.877c-.084-.1-.2-.187-.2-.341.238.054.476.107.714.164.062.015.138.053.179,0,.054-.069-.027-.129-.063-.181a7.382,7.382,0,0,0-1.255-1.384c.248-.144.5-.026.745,0a13.651,13.651,0,0,1,11.72,10.692,11.556,11.556,0,0,1,.216,3.306,10.092,10.092,0,0,1-1.88,5.269,2.045,2.045,0,0,0-.231.3,4.547,4.547,0,0,1-.985.927,13.237,13.237,0,0,1-6.454,2.7,19.78,19.78,0,0,1-5.572.1,18.384,18.384,0,0,1-8.128-3.072,13,13,0,0,1-1.692-1.316.041.041,0,0,1,0-.065c.111-.044.181.036.255.091a12.072,12.072,0,0,0,4.146,2.014,14.553,14.553,0,0,0,1.523.3,1.921,1.921,0,0,0,.358.042.477.477,0,0,1,.072.015,11.877,11.877,0,0,0,3.469-.146,13.43,13.43,0,0,0,6.685-3.2,9.537,9.537,0,0,0,2.888-4.208,6.476,6.476,0,0,0-.3-4.944,4.208,4.208,0,0,1-1.015,1.875A6.778,6.778,0,0,1,26.654,30.8c-.073.042-.153.121-.236.058s-.029-.151-.007-.224a8.887,8.887,0,0,0,.316-1.544,5.452,5.452,0,0,0-2.38-5.216A8.092,8.092,0,0,0,23.447,23.3Z" fill="#262f71"/>
      <path id="Path_8065" data-name="Path 8065" d="M33.07,38.335c0-.188.15-.293.242-.425A10.324,10.324,0,0,0,34.99,33.8a11.219,11.219,0,0,0,.125-2.78,12.232,12.232,0,0,0-1.033-4.111A13.581,13.581,0,0,0,32.5,24.189a14.121,14.121,0,0,0-2.308-2.4,13.243,13.243,0,0,0-4.5-2.429,12.61,12.61,0,0,0-2.7-.555,3.281,3.281,0,0,0-.5-.044,10.065,10.065,0,0,0-1.838-1.143c0-.022,0-.044.006-.066.239,0,.478,0,.717,0a14.23,14.23,0,0,1,9.123,2.8A13.253,13.253,0,0,1,35.7,28.7a11,11,0,0,1-1.5,8.26A6.357,6.357,0,0,1,33.07,38.335Z" fill="#161f42"/>
      <path id="Path_8066" data-name="Path 8066" d="M30.483,6.848a11.733,11.733,0,0,1-1.358,2.909,11.047,11.047,0,0,1-2.2,2.408c-.049.04-.092.086-.138.13a8.368,8.368,0,0,0-.8.553,17.1,17.1,0,0,1-3.152,1.63.617.617,0,0,1-.082.021c-.048-.072.009-.1.038-.126a4.946,4.946,0,0,0,1.274-2.148.317.317,0,0,1,.2-.233A11.219,11.219,0,0,0,29.041,8.3c.116-.15.229-.3.372-.489a5.055,5.055,0,0,0-1.029.243c-.063,0-.144.056-.159-.063a13.732,13.732,0,0,0,2.669-4.827c.035-.114,0-.27.158-.327a.028.028,0,0,1,.016.029c0,.012-.005.017-.008.017a14.721,14.721,0,0,1-.533,3.736C30.506,6.691,30.5,6.77,30.483,6.848Z" fill="#161f42"/>
      <path id="Path_8067" data-name="Path 8067" d="M22.919,20.161a7.577,7.577,0,0,1,1.025,1.429c.028.05.1.107.035.166s-.1-.01-.153-.029a22.236,22.236,0,0,0-3.992-1.087c-.686-.118-1.382-.17-2.079-.22a12.36,12.36,0,0,0-1.879.027,12.976,12.976,0,0,0-4.147.993,8.6,8.6,0,0,0-1.2.574c-.043.027-.1.072-.145,0A12.744,12.744,0,0,1,14.156,20.2a15.455,15.455,0,0,1,5.689-.539,20.929,20.929,0,0,1,2.919.443A1.532,1.532,0,0,1,22.919,20.161Z" fill="#161f42"/>
      <path id="Path_8068" data-name="Path 8068" d="M39.238,19a12.709,12.709,0,0,0-3.544-1.079A6.482,6.482,0,0,0,34.7,17.8c-.429-.271-.849-.557-1.289-.81a13.367,13.367,0,0,0-4.606-1.643.115.115,0,0,1-.075-.051,5.738,5.738,0,0,1,1.312.086c.44.058.879.139,1.312.238s.845.214,1.26.347.835.3,1.249.456a11.328,11.328,0,0,1,1.231.58,6.327,6.327,0,0,0-.41-.772c-.011-.066-.1-.124-.042-.194s.132.005.19.031c.166.075.325.166.491.241A22.14,22.14,0,0,1,39.245,18.9C39.312,18.986,39.312,18.986,39.238,19Z" fill="#161f42"/>
      <path id="Path_8069" data-name="Path 8069" d="M22.209,11.877a3.747,3.747,0,0,1-3.415,2.955,5.358,5.358,0,0,1-1,.038c.043-.123.16-.112.255-.139a5.507,5.507,0,0,0,1.1-.391,2.855,2.855,0,0,0,1.4-1.522.529.529,0,0,1,.13-.224,7.207,7.207,0,0,0,1.475-.825C22.241,11.765,22.231,11.818,22.209,11.877Z" fill="#161f42"/>
      <path id="Path_8070" data-name="Path 8070" d="M11.918,18.963c0-.063,0-.127,0-.19.007-.417-.23-.576-.617-.4a1.885,1.885,0,0,0-.925,1.008c-.045.008-.068,0-.054-.055a2.127,2.127,0,0,1,.865-1.259.94.94,0,0,1,.373-.145.4.4,0,0,1,.473.294A.951.951,0,0,1,11.918,18.963Z" fill="#161f42"/>
      <path id="Path_8071" data-name="Path 8071" d="M26.8,29.1a7.228,7.228,0,0,1-1.375.972c-.054.026-.1.079-.2.046a5.436,5.436,0,0,0-.552-5.655,8.163,8.163,0,0,0-.852-.9c-.046-.048-.1-.108-.181-.068-.086-.042-.128-.128-.19-.194.042-.053.084-.024.125,0a6.321,6.321,0,0,1,2.71,2.724,5.463,5.463,0,0,1,.522,1.915A5.55,5.55,0,0,1,26.8,29.1Z" fill="#0e1f66"/>
      <path id="Path_8072" data-name="Path 8072" d="M23.682,23.48c-.084-.073-.144-.169-.231-.239a7.415,7.415,0,0,0-2.006-.821,12.835,12.835,0,0,0-2.563-.437,9.832,9.832,0,0,0-3.2.225,2.729,2.729,0,0,0-1.37.689.929.929,0,0,0-.188,1.1,2.7,2.7,0,0,0,.424.637,9.888,9.888,0,0,1-1.609-.3,5.193,5.193,0,0,1-2.831-1.847c-.043-.056-.083-.119-.161-.134a6.213,6.213,0,0,0-.762.594c-.129.108-.211.169-.265-.082-.088-.41-.142-.825-.23-1.235l-.048-.81c.007-.239.015-.478.022-.717.031-.19.061-.381.091-.571l.339-1.055a9.2,9.2,0,0,1,.625-1.055,2.065,2.065,0,0,0,.348-.472c.362-.318.663-.7,1.055-.988.224-.162.388-.42.7-.455q-.07.311-.141.622a1.039,1.039,0,0,0,.089.774.5.5,0,0,0,.383.311,1.1,1.1,0,0,0,.827-.026,2.981,2.981,0,0,0,1.123-.532,9.4,9.4,0,0,0,1.422-1.2c.1-.091.133-.079.228-.017a1.705,1.705,0,0,0,1.455.2c-.117-.033-.194-.05-.267-.076a1.653,1.653,0,0,1-.924-.623l-.144-.287a1.943,1.943,0,0,1-.088-.574,2.516,2.516,0,0,1,.109-.66,4.07,4.07,0,0,1,.475-.732,3.717,3.717,0,0,1,1.529-.953,12.087,12.087,0,0,0,1.293-.526A12.772,12.772,0,0,0,21.92,9.669a4.7,4.7,0,0,0,1.539-1.726c.11-.235.151.025.226.042l.284.583a6,6,0,0,1,.348,1.5,18.527,18.527,0,0,0,4.477-3.959A18.805,18.805,0,0,0,20.668,5.06a18.56,18.56,0,0,0-12.894,7A18.536,18.536,0,0,0,4.4,18.776a18.262,18.262,0,0,0-.605,3.863,10.92,10.92,0,0,0-.03,1.424c.126-.1.047-.234.042-.357a1.567,1.567,0,0,0,.116.365c.192.447.411.882.633,1.314a15.561,15.561,0,0,0,3.886,4.983,11.3,11.3,0,0,0,8.684,2.674,10.783,10.783,0,0,0,4.189-1.324,7.766,7.766,0,0,0,3.06-2.916,4.349,4.349,0,0,0,.605-2.285A4.541,4.541,0,0,0,23.682,23.48Z" fill="#418aca"/>
      <path id="Path_8073" data-name="Path 8073" d="M18.017,13.94a.946.946,0,0,0-.225.93,6.628,6.628,0,0,0,1.453-.517,2.779,2.779,0,0,0,1.429-1.758,17.749,17.749,0,0,0-1.7.663A2.475,2.475,0,0,0,18.017,13.94Z" fill="#418aca"/>
      <path id="Path_8074" data-name="Path 8074" d="M11.376,18.285a.809.809,0,0,0-.259.118,1.766,1.766,0,0,0-.761.946l0,.008-.029-.029a.636.636,0,0,0-.08.27c.059,0,.072-.043.091-.073.063-.06.128-.118.188-.181a1.5,1.5,0,0,1,.806-.469.388.388,0,0,1,.517.346c-.016-.1.112-.151.07-.257a.521.521,0,0,0,.038-.161C12.011,18.388,11.786,18.187,11.376,18.285Z" fill="#418aca"/>
      <path id="Path_8075" data-name="Path 8075" d="M40.385,28.281a18.584,18.584,0,0,0-4.252-17.226,18.4,18.4,0,0,0-5.645-4.209.56.56,0,0,0-.19.348,10.074,10.074,0,0,1-.519,1.31,10.641,10.641,0,0,1-2.826,3.57c-.07.058-.171.1-.156.219a2.385,2.385,0,0,0,.543.062,18.369,18.369,0,0,1,5.843,1.751,19.3,19.3,0,0,1,3.712,2.354,15.735,15.735,0,0,1,2.627,2.584.083.083,0,0,0,.014.088c-.032.007-.044-.024-.066-.036a2.335,2.335,0,0,0-.266-.156,5.16,5.16,0,0,0-.8-.374,15.1,15.1,0,0,0-3.433-.815.3.3,0,0,0-.27.051A16.189,16.189,0,0,1,37.034,20a13.97,13.97,0,0,1,1.941,2.982A13.522,13.522,0,0,1,40.3,28.234v.341A.533.533,0,0,0,40.385,28.281Z" fill="#418aca"/>
      <path id="Path_8076" data-name="Path 8076" d="M16.555,40.106a11.634,11.634,0,0,0,4.583-.722,13.643,13.643,0,0,0,3.932-2.212,10.131,10.131,0,0,0,2.812-3.357,6.475,6.475,0,0,0,.652-2.3,5.6,5.6,0,0,0-.252-2.083c.022-.166.174-.243.263-.359a3.524,3.524,0,0,0,.7-1.5,1.766,1.766,0,0,1,.077-.219,7.12,7.12,0,0,1,.512,1.35,6.233,6.233,0,0,1,.212,2,7.859,7.859,0,0,1-1.025,3.339,10.9,10.9,0,0,1-2.208,2.7A12.772,12.772,0,0,1,24.3,38.511a13.983,13.983,0,0,1-3.463,1.321,13.28,13.28,0,0,1-2.3.332,9.234,9.234,0,0,1-1.118.029A3.651,3.651,0,0,1,16.555,40.106Z" fill="#0e1f66"/>
      <path id="Path_8077" data-name="Path 8077" d="M16.172,40.061a9.587,9.587,0,0,1-1.905-.389,12.647,12.647,0,0,1-3.31-1.554,6.842,6.842,0,0,0-.717-.5c-.153-.022-.217-.171-.339-.236A18.447,18.447,0,0,1,3.764,24.063c0-.049-.008-.093-.011-.148,0-.087,0-.19,0-.31.125.278.252.51.352.73a17.048,17.048,0,0,0,3.748,5.432,11.48,11.48,0,0,0,6.136,3.123,10.928,10.928,0,0,0,7.8-1.536,6.715,6.715,0,0,0,2.743-3.04,4.212,4.212,0,0,0-.615-4.463c-.091-.12-.188-.236-.283-.354.124-.106.19.017.26.075A5.326,5.326,0,0,1,25.34,25.48a5.608,5.608,0,0,1,.5,2.246,5.074,5.074,0,0,1-.507,2.289.341.341,0,0,0,.207-.075,6.232,6.232,0,0,0,.935-.66c.09-.079.17-.2.319-.179a9.729,9.729,0,0,1-.4,1.774,8.353,8.353,0,0,0,1.108-.736c.277-.216.5-.487.771-.706.116.049.116.163.142.26a5.749,5.749,0,0,1-.665,4.486,11.247,11.247,0,0,1-4,4,13.591,13.591,0,0,1-4.293,1.758,9.077,9.077,0,0,1-2.914.172C16.433,40.041,16.294,40.12,16.172,40.061Z" fill="#161f42"/>
    </g>
  </g>
</svg>
