<svg xmlns="http://www.w3.org/2000/svg" xmlns:xlink="http://www.w3.org/1999/xlink" width="45" height="45" viewBox="0 0 45 45">
  <defs>
    <clipPath id="clip-path">
      <rect id="Rectangle_16773" data-name="Rectangle 16773" width="45" height="45" transform="translate(385 2166)" fill="#4d4d4d"/>
    </clipPath>
  </defs>
  <g id="Mask_Group_20" data-name="Mask Group 20" transform="translate(-385 -2166)" clip-path="url(#clip-path)">
    <g id="raydium" transform="translate(388.013 2166)">
      <path id="Path_8034" data-name="Path 8034" d="M36.94,16.888V32.58L19.487,42.654,2.025,32.58V12.421L19.487,2.336,32.9,10.084l2.025-1.168L19.487,0,0,11.252v22.5L19.487,45,38.975,33.748V15.72Z" fill="#fff"/>
      <path id="Path_8035" data-name="Path 8035" d="M14.6,32.589h-2.92V22.8h9.734A3.5,3.5,0,0,0,24.88,19.3a3.338,3.338,0,0,0-1.022-2.443,3.378,3.378,0,0,0-2.443-1.022H11.681V12.859h9.744A6.483,6.483,0,0,1,27.868,19.3a6.259,6.259,0,0,1-1.139,3.65,6.346,6.346,0,0,1-2.8,2.3,11.238,11.238,0,0,1-3.485.526H14.6Z" fill="#fff"/>
      <path id="Path_8036" data-name="Path 8036" d="M27.8,32.346H24.393l-2.628-4.585a11.1,11.1,0,0,0,3.047-.623Z" fill="#fff"/>
      <path id="Path_8037" data-name="Path 8037" d="M34.906,13.628l2.015,1.119,2.015-1.119V11.262l-2.015-1.168-2.015,1.168Z" fill="#fff"/>
    </g>
  </g>
</svg>
