<svg xmlns="http://www.w3.org/2000/svg" xmlns:xlink="http://www.w3.org/1999/xlink" width="20" height="20" viewBox="0 0 20 20">
  <defs>
    <clipPath id="clip-path">
      <rect id="Rectangle_16859" data-name="Rectangle 16859" width="20" height="20" transform="translate(360 8404)" fill="#fff" stroke="#707070" stroke-width="1"/>
    </clipPath>
  </defs>
  <g id="Reddit" transform="translate(-360 -8404)" clip-path="url(#clip-path)">
    <path id="reddit-2" data-name="reddit" d="M20,9.33a2.192,2.192,0,0,0-3.709-1.5,10.69,10.69,0,0,0-5.78-1.847L11.487,1.3l3.213.676a1.5,1.5,0,1,0,.2-.916L11.216.322a.465.465,0,0,0-.556.36L9.55,5.892A10.72,10.72,0,0,0,3.694,7.739a2.192,2.192,0,1,0-2.417,3.588,4.309,4.309,0,0,0,0,.661c0,3.363,3.919,6.1,8.753,6.1s8.753-2.733,8.753-6.1a4.315,4.315,0,0,0,0-.661A2.192,2.192,0,0,0,20,9.33Zm-15.014,1.5a1.5,1.5,0,1,1,.114.575A1.5,1.5,0,0,1,4.985,10.832Zm8.723,4.129A5.766,5.766,0,0,1,10,16.117a5.766,5.766,0,0,1-3.709-1.156.405.405,0,0,1,.571-.571,4.91,4.91,0,0,0,3.123.946,4.925,4.925,0,0,0,3.138-.916.419.419,0,0,1,.586.6Zm-.27-2.567a.321.321,0,1,1-.015.06Z" transform="translate(360 8404.803)" fill="#fff"/>
  </g>
</svg>
