<svg xmlns="http://www.w3.org/2000/svg" xmlns:xlink="http://www.w3.org/1999/xlink" width="20" height="20" viewBox="0 0 20 20">
  <defs>
    <clipPath id="clip-path">
      <rect id="Rectangle_16859" data-name="Rectangle 16859" width="20" height="20" transform="translate(360 8404)" fill="#fff"/>
    </clipPath>
  </defs>
  <g id="Reddit" transform="translate(-360 -8404)" clip-path="url(#clip-path)">
    <path id="Subtraction_1" data-name="Subtraction 1" d="M8400.03,22909.779c-4.825,0-8.751-2.736-8.751-6.1a4.407,4.407,0,0,1,0-.662,2.192,2.192,0,1,1,2.415-3.588,10.689,10.689,0,0,1,5.859-1.846l1.109-5.215a.452.452,0,0,1,.2-.293.447.447,0,0,1,.247-.076.463.463,0,0,1,.1.014l3.686.736a1.506,1.506,0,0,1,1.292-.738,1.473,1.473,0,0,1,.548.105,1.5,1.5,0,0,1-.549,2.895c-.027,0-.056,0-.084,0a1.491,1.491,0,0,1-1.408-1.344l-3.208-.674-.978,4.68a10.7,10.7,0,0,1,5.778,1.852,2.19,2.19,0,0,1,3.708,1.5,2.217,2.217,0,0,1-1.219,2,4.163,4.163,0,0,1,0,.662C8408.781,22907.043,8404.855,22909.779,8400.03,22909.779Zm-.028-1.973h0c.076,0,.153,0,.229,0a5.791,5.791,0,0,0,3.479-1.164v.063a.407.407,0,0,0,.126-.289.423.423,0,0,0-.12-.3.415.415,0,0,0-.592-.006,4.967,4.967,0,0,1-2.868.922c-.1,0-.19,0-.271-.008s-.148.006-.223.006a4.939,4.939,0,0,1-2.9-.949.4.4,0,0,0-.266-.1.378.378,0,0,0-.28.117.412.412,0,0,0-.023.553,5.827,5.827,0,0,0,3.479,1.158C8399.849,22907.811,8399.926,22907.809,8400,22907.807Zm-3.515-6.785a1.186,1.186,0,0,0-.148.008,1.49,1.49,0,0,0-1.351,1.488v.006a1.368,1.368,0,0,0,.115.568,1.489,1.489,0,0,0,1.383.928,1.457,1.457,0,0,0,.434-.064,1.5,1.5,0,0,0-.433-2.934Zm7-.133a1.134,1.134,0,0,0-.146.008,1.5,1.5,0,0,0,.149,3,1.557,1.557,0,0,0,.431-.064,1.5,1.5,0,0,0-.434-2.939Z" transform="translate(-8030 -14486.889)" fill="#fff"/>
  </g>
</svg>
