<svg id="Component_27_3" data-name="Component 27 – 3" xmlns="http://www.w3.org/2000/svg" xmlns:xlink="http://www.w3.org/1999/xlink" width="90" height="90" viewBox="0 0 90 90">
  <defs>
    <clipPath id="clip-path">
      <rect id="Rectangle_16846" data-name="Rectangle 16846" width="90" height="90" fill="#4d4d4d" stroke="#707070" stroke-width="1"/>
    </clipPath>
    <linearGradient id="linear-gradient" y1="0.499" x2="1" y2="0.499" gradientUnits="objectBoundingBox">
      <stop offset="0" stop-color="#bf276f"/>
      <stop offset="1" stop-color="#df649e"/>
    </linearGradient>
    <linearGradient id="linear-gradient-2" x1="0" y1="0.5" x2="1" y2="0.5" xlink:href="#linear-gradient"/>
    <linearGradient id="linear-gradient-3" x1="0" y1="0.5" x2="1" y2="0.5" xlink:href="#linear-gradient"/>
    <linearGradient id="linear-gradient-4" x1="0" y1="0.5" x2="1" y2="0.5" xlink:href="#linear-gradient"/>
    <linearGradient id="linear-gradient-5" x1="0" y1="0.5" x2="1" y2="0.5" xlink:href="#linear-gradient"/>
    <linearGradient id="linear-gradient-6" y1="0.5" x2="1" y2="0.5" gradientUnits="objectBoundingBox">
      <stop offset="0" stop-color="#fcf7fb"/>
      <stop offset="1" stop-color="#eda9c9"/>
    </linearGradient>
    <linearGradient id="linear-gradient-7" x1="0" y1="0.5" x2="1" y2="0.5" xlink:href="#linear-gradient-6"/>
    <linearGradient id="linear-gradient-8" x1="0" y1="0.5" x2="1" y2="0.5" xlink:href="#linear-gradient"/>
    <linearGradient id="linear-gradient-9" x1="0" y1="0.5" x2="1" y2="0.5" xlink:href="#linear-gradient"/>
    <linearGradient id="linear-gradient-10" x1="0" y1="0.5" x2="1" y2="0.5" xlink:href="#linear-gradient-6"/>
    <linearGradient id="linear-gradient-11" x1="0" y1="0.5" x2="1" y2="0.5" xlink:href="#linear-gradient"/>
    <linearGradient id="linear-gradient-12" y1="0.5" x2="1" y2="0.5" gradientUnits="objectBoundingBox">
      <stop offset="0" stop-color="#92489c"/>
      <stop offset="1" stop-color="#4a2a7a"/>
    </linearGradient>
    <linearGradient id="linear-gradient-13" x1="0" y1="0.5" x2="1" y2="0.5" xlink:href="#linear-gradient-12"/>
    <linearGradient id="linear-gradient-14" x1="0" y1="0.5" x2="1" y2="0.5" xlink:href="#linear-gradient-12"/>
  </defs>
  <g id="Mask_Group_117" data-name="Mask Group 117" clip-path="url(#clip-path)">
    <g id="Layer_1-2" transform="translate(7.297 -0.004)">
      <g id="Group_2619" data-name="Group 2619">
        <path id="Path_13259" data-name="Path 13259" d="M58.843,18.658a6.64,6.64,0,0,0-.558.456,5.419,5.419,0,0,0-4.845,2.827,1,1,0,0,0,1.793.9A3.315,3.315,0,0,1,56.838,21.4a4.049,4.049,0,0,0,.46,2.938c1.018,1.873,3.6,3.649,5.212,3.112.021-.009.043-.013.06-.021a3.384,3.384,0,0,0,1.844-3.347,5.063,5.063,0,0,0-3.551-4.42c2.12-1.073,3.351-.656,4.049-.328,2.227,1.052,1.78,3.01,2.333,3.01.83,0,1.035-3.172-1.443-4.692-1.993-1.222-4.6-.728-6.962,1.013Zm3.568,5.476a1.629,1.629,0,0,1-.528,1.405,4.442,4.442,0,0,1-2.963-2.461,1.9,1.9,0,0,1,.187-1.886,5.642,5.642,0,0,1,.792.2c2.218.7,2.5,2.154,2.512,2.746Z" fill="url(#linear-gradient)"/>
        <path id="Path_13260" data-name="Path 13260" d="M24.981,79c-1.946-1.124-8.822-1.35-8.822-1.35l.315,3.385a2.48,2.48,0,0,0,1.46,2.035,7.784,7.784,0,0,0,7.047,0c1.946-1.124,1.946-2.942,0-4.066Z" fill="url(#linear-gradient-2)"/>
        <path id="Path_13261" data-name="Path 13261" d="M29.23,86.945a3,3,0,0,0,1.661,2.091,8.947,8.947,0,0,0,8.094,0A2.857,2.857,0,0,0,40.662,86.7l.694-4.845L28.1,81.989l1.128,4.956Z" fill="url(#linear-gradient-3)"/>
        <path id="Path_13262" data-name="Path 13262" d="M56.68,76.4a3.01,3.01,0,0,0,1.661,2.091,8.947,8.947,0,0,0,8.094,0,2.857,2.857,0,0,0,1.678-2.338l3.828-15.5L56.063,69.824l.613,6.57Z" fill="url(#linear-gradient-4)"/>
        <path id="Path_13263" data-name="Path 13263" d="M74.985,42.08S72.422,19.471,43.928,19.186-7.779,54.62,7.541,71.868c15.094,17,32.768,11.015,49.621,4.143S76.633,50.072,74.985,42.08Z" fill="url(#linear-gradient-5)"/>
        <path id="Path_13264" data-name="Path 13264" d="M19.714,77.872l.055-.034h0s-.034.021-.051.034Z" fill="#ce6480"/>
        <path id="Path_13265" data-name="Path 13265" d="M7.03,28.694l10.3,7.839h0a2.815,2.815,0,0,0,.643-4.164c-2.142-2.567-6.05-5.842-10.938-3.675Z" fill="url(#linear-gradient-6)"/>
        <path id="Path_13266" data-name="Path 13266" d="M45,41.271C36.881,36.83,28.6,43.426,28.6,43.426,37.495,45.205,40.773,58.5,40.773,58.5c10.091-3.53,9.427-14.383,4.22-17.231Z" fill="url(#linear-gradient-7)"/>
        <path id="Path_13267" data-name="Path 13267" d="M27.335,62.837a2.244,2.244,0,0,0,.528-1.592,6.284,6.284,0,0,0-2.84-4.918c-1.567-.907-2.84-.17-2.84,1.639a1.116,1.116,0,0,0,0,.119A15.742,15.742,0,0,1,27.335,62.837Z" fill="#0f1040"/>
        <path id="Path_13268" data-name="Path 13268" d="M13.54,53.832c.06-.473-.443-3.862-3.726-3.781-1.822.047-3.479,2.014-3.244,3.057A15.709,15.709,0,0,1,13.54,53.832Z" fill="#0f1040"/>
        <path id="Path_13269" data-name="Path 13269" d="M6.323,29.281C3.24,33.113,8.729,40.9,8.729,40.9c2.091-4.377,8.6-4.364,8.6-4.364s-7.92-11.087-11-7.251Z" fill="url(#linear-gradient-8)"/>
        <path id="Path_13270" data-name="Path 13270" d="M28.6,43.426S35,47.181,40.773,58.5c0,0,6.178-10.2,1.405-15.5-3.772-4.19-13.574.426-13.574.426Z" fill="url(#linear-gradient-9)"/>
        <g id="Group_2612" data-name="Group 2612">
          <path id="Path_13271" data-name="Path 13271" d="M12.6,58.733c-2.951-.758-6.983.673-11.1,3.389-4.245,2.8,15.026,13.408,15.026,13.408a12.591,12.591,0,0,0,3.189-8.482c0-3.611-2.078-7.021-7.115-8.316Z" fill="url(#linear-gradient-10)"/>
          <path id="Path_13272" data-name="Path 13272" d="M7.9,62.531C3.1,60.521-.413,61.79.038,65.371S4.752,73.486,9.546,75.5s8.311.741,7.86-2.84S12.7,64.54,7.9,62.531Z" fill="url(#linear-gradient-11)"/>
          <path id="Path_13273" data-name="Path 13273" d="M4.654,64.493c-.711-.3-1.145.6-.962,2.014s.9,2.8,1.614,3.1,1.145-.6.962-2.014S5.365,64.792,4.654,64.493Z" fill="#0f1040"/>
          <path id="Path_13274" data-name="Path 13274" d="M11.109,68.1c-.711-.3-1.145.6-.962,2.014s.9,2.8,1.614,3.1,1.145-.6.962-2.014S11.82,68.394,11.109,68.1Z" fill="#0f1040"/>
        </g>
        <path id="Path_13275" data-name="Path 13275" d="M44.814,22.86c-10.73-.123-18.879,6.983-19.224,7.285a1.712,1.712,0,0,0,2.269,2.563c.072-.064,7.536-6.532,16.912-6.425a1.714,1.714,0,1,0,.038-3.428Z" fill="#911d58"/>
        <path id="Path_13276" data-name="Path 13276" d="M44.72,23.605c-10.364-.119-18.236,6.744-18.568,7.038a1.654,1.654,0,0,0,2.193,2.478c.072-.064,7.277-6.31,16.337-6.208a1.654,1.654,0,0,0,.038-3.308Z" fill="#0f1040"/>
        <g id="Group_2614" data-name="Group 2614">
          <path id="Path_13277" data-name="Path 13277" d="M34.467,15.763a10.427,10.427,0,0,0-4.73,8.2A3.312,3.312,0,0,0,31.121,27l1.32.766a3.316,3.316,0,0,1-1.384-3.04,10.438,10.438,0,0,1,4.73-8.2,3.342,3.342,0,0,1,3.376-.328l-1.32-.766A3.352,3.352,0,0,0,34.467,15.763Z" fill="url(#linear-gradient-12)"/>
          <g id="Group_2613" data-name="Group 2613" opacity="0.3">
            <path id="Path_13278" data-name="Path 13278" d="M31.176,25.858l-1.3-.694a3.494,3.494,0,0,0,.2.6l1.29.69a3.951,3.951,0,0,1-.183-.588Z" fill="#fff"/>
            <path id="Path_13279" data-name="Path 13279" d="M33.858,18.117,32.5,17.393c-.1.111-.2.217-.294.332l1.354.724C33.658,18.334,33.76,18.224,33.858,18.117Z" fill="#fff"/>
            <path id="Path_13280" data-name="Path 13280" d="M33.373,18.688l-1.354-.724c-.089.115-.179.23-.264.349l1.35.724C33.19,18.918,33.284,18.8,33.373,18.688Z" fill="#fff"/>
            <path id="Path_13281" data-name="Path 13281" d="M36.494,16.188l-1.384-.741c-.158.068-.319.145-.481.234L36,16.418c.166-.085.328-.162.49-.23Z" fill="#fff"/>
            <path id="Path_13282" data-name="Path 13282" d="M32.93,19.288l-1.35-.724c-.081.119-.162.238-.238.362l1.345.72c.077-.123.158-.243.243-.362Z" fill="#fff"/>
            <path id="Path_13283" data-name="Path 13283" d="M37.529,15.907l-1.405-.754a3.633,3.633,0,0,0-.639.149l1.392.745a3.9,3.9,0,0,1,.651-.141Z" fill="#fff"/>
            <path id="Path_13284" data-name="Path 13284" d="M35,17.061l-1.367-.732c-.123.094-.243.2-.358.3l1.363.728c.119-.1.238-.2.362-.3Z" fill="#fff"/>
            <path id="Path_13285" data-name="Path 13285" d="M34.395,17.572l-1.358-.728c-.111.1-.213.209-.319.319l1.358.728C34.182,17.785,34.288,17.674,34.395,17.572Z" fill="#fff"/>
            <path id="Path_13286" data-name="Path 13286" d="M35.685,16.593l-1.371-.732c-.141.085-.277.175-.413.273l1.367.732c.136-.1.277-.183.417-.268Z" fill="#fff"/>
            <path id="Path_13287" data-name="Path 13287" d="M31.189,23.358l-1.328-.711c-.026.153-.047.3-.068.456l1.324.711c.017-.149.043-.3.072-.451Z" fill="#fff"/>
            <path id="Path_13288" data-name="Path 13288" d="M32.172,20.548l-1.345-.72c-.064.128-.128.26-.187.392l1.341.72c.06-.132.123-.26.187-.392Z" fill="#fff"/>
            <path id="Path_13289" data-name="Path 13289" d="M32.53,19.91l-1.345-.72c-.072.123-.145.251-.213.379l1.345.72c.068-.128.141-.251.213-.375Z" fill="#fff"/>
            <path id="Path_13290" data-name="Path 13290" d="M31.585,26.91l-1.269-.677a2.421,2.421,0,0,0,.8.771l1.133.66.009-.017a2.509,2.509,0,0,1-.677-.737Z" fill="#fff"/>
            <path id="Path_13291" data-name="Path 13291" d="M38.819,16.039l.017-.03-.992-.575a2.4,2.4,0,0,0-1.15-.315l1.448.775A2.522,2.522,0,0,1,38.819,16.039Z" fill="#fff"/>
            <path id="Path_13292" data-name="Path 13292" d="M31.065,24.964l-1.316-.7a4.991,4.991,0,0,0,.051.519l1.307.7c-.021-.166-.038-.336-.047-.515Z" fill="#fff"/>
            <path id="Path_13293" data-name="Path 13293" d="M31.853,21.213,30.516,20.5c-.06.132-.111.268-.162.4l1.337.715C31.742,21.481,31.8,21.349,31.853,21.213Z" fill="#fff"/>
            <path id="Path_13294" data-name="Path 13294" d="M31.078,24.138l-1.324-.707c-.013.162-.017.319-.017.481l1.32.707C31.057,24.461,31.065,24.3,31.078,24.138Z" fill="#fff"/>
            <path id="Path_13295" data-name="Path 13295" d="M31.359,22.618,30.026,21.9c-.038.145-.077.29-.106.434l1.328.711c.034-.145.072-.29.111-.43Z" fill="#fff"/>
            <path id="Path_13296" data-name="Path 13296" d="M31.585,21.9l-1.337-.715c-.047.141-.1.277-.141.417l1.337.715C31.487,22.179,31.534,22.043,31.585,21.9Z" fill="#fff"/>
          </g>
          <path id="Path_13297" data-name="Path 13297" d="M35.783,16.529a10.427,10.427,0,0,0-4.73,8.2c.009,3.006,2.142,4.224,4.76,2.708a10.418,10.418,0,0,0,4.73-8.192c-.009-3.015-2.142-4.232-4.765-2.717Z" fill="#d2d4eb"/>
        </g>
        <g id="Group_2616" data-name="Group 2616">
          <path id="Path_13298" data-name="Path 13298" d="M48.028.651a10.427,10.427,0,0,0-4.73,8.2,3.312,3.312,0,0,0,1.384,3.04l1.32.766a3.316,3.316,0,0,1-1.384-3.04,10.438,10.438,0,0,1,4.73-8.2,3.342,3.342,0,0,1,3.376-.328L51.4.324a3.344,3.344,0,0,0-3.376.332Z" fill="url(#linear-gradient-13)"/>
          <g id="Group_2615" data-name="Group 2615" opacity="0.3">
            <path id="Path_13299" data-name="Path 13299" d="M44.737,10.743l-1.3-.694a3.494,3.494,0,0,0,.2.6l1.29.69a3.952,3.952,0,0,1-.183-.588Z" fill="#fff"/>
            <path id="Path_13300" data-name="Path 13300" d="M47.42,3l-1.354-.724c-.1.111-.2.217-.294.332l1.354.724Q47.273,3.161,47.42,3Z" fill="#fff"/>
            <path id="Path_13301" data-name="Path 13301" d="M46.934,3.577,45.58,2.853c-.089.115-.179.23-.264.349l1.35.724c.085-.119.179-.234.268-.349Z" fill="#fff"/>
            <path id="Path_13302" data-name="Path 13302" d="M50.055,1.077,48.671.336c-.158.068-.319.145-.481.234l1.375.737c.166-.085.328-.162.49-.23Z" fill="#fff"/>
            <path id="Path_13303" data-name="Path 13303" d="M46.491,4.173l-1.35-.724c-.081.119-.162.238-.238.362l1.345.72c.077-.123.158-.243.238-.362Z" fill="#fff"/>
            <path id="Path_13304" data-name="Path 13304" d="M51.09.8,49.685.043a3.723,3.723,0,0,0-.639.149l1.392.745A3.9,3.9,0,0,1,51.09.8Z" fill="#fff"/>
            <path id="Path_13305" data-name="Path 13305" d="M48.565,1.946,47.2,1.213c-.123.094-.243.2-.358.3L48.2,2.24c.119-.1.238-.2.362-.3Z" fill="#fff"/>
            <path id="Path_13306" data-name="Path 13306" d="M47.956,2.457l-1.363-.728c-.106.1-.213.213-.319.319l1.358.728q.16-.166.319-.319Z" fill="#fff"/>
            <path id="Path_13307" data-name="Path 13307" d="M49.246,1.477,47.875.745c-.141.085-.277.175-.413.273l1.367.732c.136-.1.277-.183.417-.268Z" fill="#fff"/>
            <path id="Path_13308" data-name="Path 13308" d="M44.75,8.247l-1.328-.711c-.026.153-.047.3-.068.456l1.324.711c.017-.149.043-.3.072-.451Z" fill="#fff"/>
            <path id="Path_13309" data-name="Path 13309" d="M45.733,5.437l-1.345-.72c-.064.128-.123.26-.187.392l1.341.72c.06-.132.123-.26.187-.392Z" fill="#fff"/>
            <path id="Path_13310" data-name="Path 13310" d="M46.091,4.794l-1.345-.72c-.072.123-.145.251-.213.379l1.345.72c.068-.128.141-.251.213-.375Z" fill="#fff"/>
            <path id="Path_13311" data-name="Path 13311" d="M45.146,11.8l-1.269-.677a2.421,2.421,0,0,0,.8.771l1.133.66.009-.017a2.454,2.454,0,0,1-.677-.737Z" fill="#fff"/>
            <path id="Path_13312" data-name="Path 13312" d="M52.376.924l.017-.03L51.4.319A2.4,2.4,0,0,0,50.251,0L51.7.779A2.369,2.369,0,0,1,52.376.924Z" fill="#fff"/>
            <path id="Path_13313" data-name="Path 13313" d="M44.626,9.848l-1.316-.7a4.992,4.992,0,0,0,.051.519l1.307.7c-.021-.166-.038-.336-.047-.515Z" fill="#fff"/>
            <path id="Path_13314" data-name="Path 13314" d="M45.414,6.1l-1.341-.715c-.055.132-.111.268-.162.4l1.341.715C45.3,6.37,45.354,6.238,45.414,6.1Z" fill="#fff"/>
            <path id="Path_13315" data-name="Path 13315" d="M44.639,9.022l-1.324-.707c-.013.162-.017.324-.021.481l1.32.707c0-.158.009-.319.021-.481Z" fill="#fff"/>
            <path id="Path_13316" data-name="Path 13316" d="M44.92,7.507l-1.333-.715c-.038.145-.077.29-.106.434l1.328.711c.034-.145.072-.29.111-.43Z" fill="#fff"/>
            <path id="Path_13317" data-name="Path 13317" d="M45.142,6.791,43.8,6.076c-.047.141-.1.277-.141.417L45,7.209c.043-.141.089-.277.141-.417Z" fill="#fff"/>
          </g>
          <path id="Path_13318" data-name="Path 13318" d="M49.344,1.418a10.438,10.438,0,0,0-4.73,8.2c.009,3.006,2.142,4.224,4.76,2.708A10.425,10.425,0,0,0,54.1,4.134C54.1,1.12,51.963-.1,49.34,1.414Z" fill="#d2d4eb"/>
        </g>
        <g id="Group_2618" data-name="Group 2618">
          <path id="Path_13319" data-name="Path 13319" d="M19.041.8a10.427,10.427,0,0,0-4.73,8.2,3.326,3.326,0,0,0,1.384,3.04l1.32.766a3.316,3.316,0,0,1-1.384-3.04,10.438,10.438,0,0,1,4.73-8.2,3.342,3.342,0,0,1,3.376-.328L22.418.477a3.344,3.344,0,0,0-3.376.332Z" fill="url(#linear-gradient-14)"/>
          <g id="Group_2617" data-name="Group 2617" opacity="0.3">
            <path id="Path_13320" data-name="Path 13320" d="M15.75,10.9l-1.3-.694a3.494,3.494,0,0,0,.2.6l1.29.69a3.951,3.951,0,0,1-.183-.588Z" fill="#fff"/>
            <path id="Path_13321" data-name="Path 13321" d="M18.432,3.155l-1.354-.724c-.1.111-.2.217-.294.332l1.354.724Q18.285,3.315,18.432,3.155Z" fill="#fff"/>
            <path id="Path_13322" data-name="Path 13322" d="M17.947,3.73l-1.354-.724c-.089.115-.179.23-.264.349l1.35.724c.085-.119.179-.234.268-.349Z" fill="#fff"/>
            <path id="Path_13323" data-name="Path 13323" d="M21.068,1.226,19.684.485c-.158.068-.319.145-.481.234l1.375.737C20.744,1.367,20.906,1.294,21.068,1.226Z" fill="#fff"/>
            <path id="Path_13324" data-name="Path 13324" d="M17.5,4.326,16.154,3.6c-.081.119-.162.238-.238.362l1.345.72c.077-.123.158-.243.243-.362Z" fill="#fff"/>
            <path id="Path_13325" data-name="Path 13325" d="M22.1.949,20.7.2a3.723,3.723,0,0,0-.639.149l1.392.745A3.9,3.9,0,0,1,22.1.949Z" fill="#fff"/>
            <path id="Path_13326" data-name="Path 13326" d="M19.578,2.1l-1.367-.732c-.123.094-.243.2-.358.3l1.363.728c.119-.1.243-.2.362-.3Z" fill="#fff"/>
            <path id="Path_13327" data-name="Path 13327" d="M18.973,2.61l-1.358-.728c-.111.1-.213.213-.319.319l1.358.728C18.76,2.823,18.866,2.712,18.973,2.61Z" fill="#fff"/>
            <path id="Path_13328" data-name="Path 13328" d="M20.263,1.631,18.892.9c-.141.085-.277.175-.413.268l1.367.732c.136-.094.277-.183.417-.268Z" fill="#fff"/>
            <path id="Path_13329" data-name="Path 13329" d="M15.763,8.4,14.434,7.69c-.026.153-.047.3-.068.456l1.324.711c.017-.149.043-.3.072-.451Z" fill="#fff"/>
            <path id="Path_13330" data-name="Path 13330" d="M16.746,5.591,15.4,4.871c-.068.128-.128.26-.187.392l1.341.72c.06-.132.123-.26.187-.387Z" fill="#fff"/>
            <path id="Path_13331" data-name="Path 13331" d="M17.1,4.948l-1.345-.72c-.072.123-.145.251-.213.379l1.345.72c.068-.128.141-.251.213-.375Z" fill="#fff"/>
            <path id="Path_13332" data-name="Path 13332" d="M16.158,11.952l-1.269-.677a2.421,2.421,0,0,0,.8.771l1.133.66.009-.017a2.454,2.454,0,0,1-.677-.737Z" fill="#fff"/>
            <path id="Path_13333" data-name="Path 13333" d="M23.393,1.077l.017-.03L22.418.473a2.4,2.4,0,0,0-1.15-.315l1.448.775A2.522,2.522,0,0,1,23.393,1.077Z" fill="#fff"/>
            <path id="Path_13334" data-name="Path 13334" d="M15.639,10l-1.316-.7a4.992,4.992,0,0,0,.051.519l1.307.7c-.021-.166-.038-.336-.047-.515Z" fill="#fff"/>
            <path id="Path_13335" data-name="Path 13335" d="M16.427,6.255,15.09,5.539c-.06.132-.111.268-.162.4l1.337.715C16.316,6.523,16.371,6.391,16.427,6.255Z" fill="#fff"/>
            <path id="Path_13336" data-name="Path 13336" d="M15.652,9.176l-1.324-.707c-.013.162-.017.319-.017.481l1.32.707c0-.158.009-.319.021-.481Z" fill="#fff"/>
            <path id="Path_13337" data-name="Path 13337" d="M15.933,7.656,14.6,6.945c-.038.145-.077.29-.106.434l1.328.711c.034-.145.072-.29.111-.434Z" fill="#fff"/>
            <path id="Path_13338" data-name="Path 13338" d="M16.158,6.945l-1.337-.715c-.047.141-.1.277-.141.417l1.337.715C16.061,7.221,16.107,7.085,16.158,6.945Z" fill="#fff"/>
          </g>
          <path id="Path_13339" data-name="Path 13339" d="M20.361,1.571a10.427,10.427,0,0,0-4.73,8.2c.009,3.006,2.142,4.224,4.76,2.708a10.425,10.425,0,0,0,4.73-8.192C25.113,1.273,22.98.055,20.357,1.567Z" fill="#d2d4eb"/>
        </g>
      </g>
    </g>
  </g>
</svg>
