<svg xmlns="http://www.w3.org/2000/svg" xmlns:xlink="http://www.w3.org/1999/xlink" width="45" height="45" viewBox="0 0 45 45">
  <defs>
    <clipPath id="clip-path">
      <rect id="Rectangle_16773" data-name="Rectangle 16773" width="45" height="45" transform="translate(385 2166)" fill="#4d4d4d"/>
    </clipPath>
  </defs>
  <g id="Mask_Group_21" data-name="Mask Group 21" transform="translate(-385 -2166)" clip-path="url(#clip-path)">
    <g id="spookyswap" transform="translate(385 2166)">
      <path id="Path_8038" data-name="Path 8038" d="M0,22.5A22.5,22.5,0,1,0,22.5,0,22.5,22.5,0,0,0,0,22.5Z" fill="#121122"/>
      <path id="Path_8039" data-name="Path 8039" d="M6.789,16.8a15.761,15.761,0,0,0,.385,5.341,1.234,1.234,0,0,0,.764.589,11.384,11.384,0,0,0-1.112,4.9c0,7.324,7.09,13.266,15.834,13.266S38.5,34.963,38.5,27.625a11.391,11.391,0,0,0-1.134-4.943,1.148,1.148,0,0,0,.64-.542A15.744,15.744,0,0,0,38.39,16.8c-.257-2.375-1.072-3.1-3.52-2.492A13.507,13.507,0,0,0,30.722,16.2a18.527,18.527,0,0,0-16.2.042,13.488,13.488,0,0,0-4.208-1.931c-2.449-.608-3.262.117-3.521,2.492Zm9.22,10.471a13.469,13.469,0,0,0-5.029-.612s.149,2.987,1.97,4c2.16,1.2,6.176.606,6.176.606a5.4,5.4,0,0,0-3.118-4Zm10.313,4s4.016.595,6.176-.606c1.821-1.014,1.97-4,1.97-4a13.469,13.469,0,0,0-5.029.612,5.367,5.367,0,0,0-3.118,3.984v.011Zm-4.455,2.105c0,.22.409.4.913.4s.913-.179.913-.4-.409-.4-.913-.4-.913.172-.913.4Z" fill="#f2f4f8" fill-rule="evenodd"/>
      <path id="Path_8040" data-name="Path 8040" d="M40.706,31.537a13.038,13.038,0,0,0-4.645-.875h0a.313.313,0,0,1,0-.625,13.528,13.528,0,0,1,4.811.9.319.319,0,0,1,.217.38.315.315,0,0,1-.385.219ZM4.549,30.952a13.542,13.542,0,0,1,4.813-.9v0a.313.313,0,0,1,0,.625,13.028,13.028,0,0,0-4.646.875.315.315,0,0,1-.384-.218.32.32,0,0,1,.218-.385Zm3.187,1.791a8.518,8.518,0,0,1,2.374-.4.313.313,0,0,1,0,.625,7.857,7.857,0,0,0-2.166.364,4.838,4.838,0,0,0-1.876.9c-.3.274-.737-.167-.441-.442a5.361,5.361,0,0,1,2.109-1.051ZM10.823,33.9a12.025,12.025,0,0,0-1.8.961,5.612,5.612,0,0,0-1.5,1.351.314.314,0,0,0,.111.428.321.321,0,0,0,.429-.111,4.935,4.935,0,0,1,1.354-1.183,12.171,12.171,0,0,1,1.718-.906.315.315,0,0,0,.112-.428.321.321,0,0,0-.428-.113Zm24.49-.949a7.816,7.816,0,0,1,2.166.363,7.269,7.269,0,0,1,1.059.391,3.236,3.236,0,0,1,.814.513c.3.273.738-.167.443-.443a5.3,5.3,0,0,0-2.107-1.051,8.487,8.487,0,0,0-2.375-.4.313.313,0,0,0,0,.626ZM36,35.333a12.48,12.48,0,0,0-1.691-.875v-.006a.316.316,0,0,1-.113-.427.323.323,0,0,1,.429-.111,7.774,7.774,0,0,1,3.295,2.313.315.315,0,0,1-.111.427.32.32,0,0,1-.428-.112A4.953,4.953,0,0,0,36,35.333Z" fill="#f2f4f8" fill-rule="evenodd"/>
      <path id="Path_8041" data-name="Path 8041" d="M2.174,23.733c.288-.45,2.827-1.8,5.966-2.608a36.9,36.9,0,0,1,2.5-5.576c-.012,0,2.512-4.53,2.5-4.532a14.273,14.273,0,0,1-2.078-1.164,1.8,1.8,0,0,1-.3-.293.692.692,0,0,1-.1-.366.922.922,0,0,1,.214-.375,4.361,4.361,0,0,1,.558-.547,14.767,14.767,0,0,1,1.514-1.088c.25-.165.51-.326.766-.489,1.8-1.146,2.786-2.009,4.435-2.956,1.575-.9,2.341-1.459,4.167-1.365,2.295,0,8,7.268,10.572,11.012a81.369,81.369,0,0,1,4.375,7.826c.183.046.348.089.5.134,2.34.7,4.635,1.732,5.2,2.388.5.582-1.685.842-3.839,1.217s-9.46.562-16.481.609-15.216-.188-17-.468-3.824-.8-3.465-1.358Z" fill="#6665dd"/>
      <path id="Path_8042" data-name="Path 8042" d="M35.305,17.455A57.938,57.938,0,0,0,22.531,16.3c-8.75,0-12.964,1.35-12.964,1.35s-.5.95-.717,1.5-.71,1.979-.71,1.979a91.59,91.59,0,0,1,14.514-1.139A91.641,91.641,0,0,1,37.3,21.223s-.739-1.73-1.181-2.467q-.394-.657-.81-1.3Z" fill="#ff99a5"/>
      <path id="Path_8043" data-name="Path 8043" d="M7.779,7.678c.53-.077,1.25,1.545,1.25,1.545s1.667-.449,1.927,0-1.172,1.526-1.172,1.526.865,1.522.591,1.838-1.816-.643-1.816-.643S7.382,13.269,7,13.069s.051-1.927.051-1.927-1.664-.707-1.55-1.128,1.848-.547,1.848-.547-.1-1.711.431-1.789Z" fill="#ffe600"/>
    </g>
  </g>
</svg>
