<svg xmlns="http://www.w3.org/2000/svg" xmlns:xlink="http://www.w3.org/1999/xlink" width="45" height="45" viewBox="0 0 45 45">
  <defs>
    <clipPath id="clip-path">
      <rect id="Rectangle_16773" data-name="Rectangle 16773" width="45" height="45" transform="translate(385 2166)" fill="#4d4d4d"/>
    </clipPath>
  </defs>
  <g id="Mask_Group_24" data-name="Mask Group 24" transform="translate(-385 -2166)" clip-path="url(#clip-path)">
    <g id="sushiswap" transform="translate(385 2167.286)">
      <path id="Path_8049" data-name="Path 8049" d="M9.284,2.916,44.238,26.783,35.593,39.562.639,15.507Z" fill="#fff"/>
      <path id="Path_8050" data-name="Path 8050" d="M44.242,26.782C41.236,31.1,31.087,29.413,21.5,22.648,11.731,16.071,6.469,7.238,9.288,2.916,12.295-1.407,22.443.285,32.027,7.05,41.8,13.44,47.061,22.46,44.242,26.782Z" fill="#fff"/>
      <path id="Path_8051" data-name="Path 8051" d="M35.594,39.373C32.588,43.7,22.44,42,12.855,35.239S-2.179,19.829.828,15.318C3.835,11,13.983,12.688,23.567,19.453S38.413,35.051,35.594,39.373Z" fill="#fff"/>
      <path id="Path_8052" data-name="Path 8052" d="M44.234,26.781,35.589,39.56C32.582,43.882,22.434,42,12.85,35.426a56.6,56.6,0,0,1-5.262-4.134,8,8,0,0,0,4.7-2.819c3.007-3.195,4.51-3.946,5.826-3.759,1.315,0,2.819,1.315,5.262,4.51s5.826,4.134,7.893,2.443c.188-.188.376-.188.564-.376,1.691-1.315,2.255-1.879,5.45-7.893a5.911,5.911,0,0,1,6.953-2.819Q45.643,24.244,44.234,26.781Z" fill="#0e0f23"/>
      <path id="Path_8053" data-name="Path 8053" d="M42.922,26.03c-2.631,3.759-11.839,1.879-20.672-4.322C13.229,15.506,7.967,7.614,10.6,3.855S22.438,1.976,31.27,8.177,45.365,22.272,42.922,26.03Zm-8.269-5.638c-1.315,1.879-5.826.94-10.336-2.067-4.322-3.007-6.953-6.953-5.638-8.832s5.826-.94,10.336,2.067C33.337,14.567,35.968,18.513,34.653,20.393Z" fill="#fff" fill-rule="evenodd"/>
      <path id="Path_8054" data-name="Path 8054" d="M8.539,7.237c0-.188-.188-.376-.376-.188s-.376.188-.376.376A4.78,4.78,0,0,1,8.163,8.74c0,.188.188.376.376.188.188,0,.376-.188.188-.376A3.669,3.669,0,0,0,8.539,7.237Z" fill="#fff"/>
      <path id="Path_8055" data-name="Path 8055" d="M9.473,10.246c0-.188-.188-.376-.376-.188s-.188.188-.188.376c2.067,4.7,6.39,9.772,12.027,13.531.188.188.376,0,.564,0,.188-.188,0-.376,0-.564A32.675,32.675,0,0,1,9.473,10.246Z" fill="#fff"/>
      <path id="Path_8056" data-name="Path 8056" d="M32.209,28.662c-.188,0-.376,0-.376.188s0,.376.188.376c.564.188,1.316.376,1.879.564.188,0,.376,0,.376-.188s0-.376-.188-.376C33.524,29.038,32.772,28.85,32.209,28.662Z" fill="#fff"/>
      <path id="Path_8057" data-name="Path 8057" d="M35.6,29.413a.376.376,0,1,0,0,.752,18.517,18.517,0,0,0,4.51.188.376.376,0,0,0,0-.752A18.16,18.16,0,0,1,35.6,29.413Z" fill="#fff"/>
    </g>
  </g>
</svg>
