<svg xmlns="http://www.w3.org/2000/svg" xmlns:xlink="http://www.w3.org/1999/xlink" width="20" height="20" viewBox="0 0 20 20">
  <defs>
    <clipPath id="clip-path">
      <rect id="Rectangle_16943" data-name="Rectangle 16943" width="20" height="20" transform="translate(1291 145)" fill="#959eb1" stroke="#707070" stroke-width="1"/>
    </clipPath>
  </defs>
  <g id="Team" transform="translate(-1291 -145)" clip-path="url(#clip-path)">
    <g id="专家库_团队" transform="translate(1291 146.081)">
      <path id="Path_8744" data-name="Path 8744" d="M14.49,3.319a4.074,4.074,0,0,1,3.872,4.252,4.515,4.515,0,0,1-.848,2.657l-.1.13.046.03a6.572,6.572,0,0,1,2.849,5.385l0,.147v1.089a.622.622,0,0,1-.562.619l-.06,0H17.594a.622.622,0,0,1-.06-1.242l.06,0h1.472v-.467a5.238,5.238,0,0,0-2.813-4.786l-.11-.05A.622.622,0,0,1,16,10.029a3.152,3.152,0,0,0,1.115-2.459A2.839,2.839,0,0,0,14.49,4.563a2.289,2.289,0,0,0-.414.037.622.622,0,1,1-.222-1.225,3.561,3.561,0,0,1,.636-.057ZM8.4,1.556A5.185,5.185,0,0,0,3.215,6.741l0,.149a5.173,5.173,0,0,0,1.39,3.387l.066.069-.054.029A8.091,8.091,0,0,0,.311,17.527v1.245a.622.622,0,0,0,.622.622H15.867a.622.622,0,0,0,.622-.622V17.527l0-.16a8.091,8.091,0,0,0-4.306-6.993l-.055-.028.067-.069A5.186,5.186,0,0,0,8.4,1.556ZM8.4,2.8A3.941,3.941,0,0,1,10.618,10a.622.622,0,0,0,.136,1.1l.138.052a6.846,6.846,0,0,1,4.353,6.377v.622H1.556v-.622A6.847,6.847,0,0,1,6.047,11.1.622.622,0,0,0,6.183,10,3.941,3.941,0,0,1,8.4,2.8Z" transform="translate(-0.311 -1.556)" fill="#959eb1"/>
    </g>
  </g>
</svg>
