<svg xmlns="http://www.w3.org/2000/svg" xmlns:xlink="http://www.w3.org/1999/xlink" width="40" height="40" viewBox="0 0 40 40">
  <defs>
    <linearGradient id="linear-gradient" x1="0.066" y1="0.25" x2="0.933" y2="0.75" gradientUnits="objectBoundingBox">
      <stop offset="0" stop-color="#a56ef0"/>
      <stop offset="1" stop-color="#191664"/>
    </linearGradient>
  </defs>
  <g id="telos" transform="translate(-0.6 -0.6)">
    <circle id="Ellipse_642" data-name="Ellipse 642" cx="20" cy="20" r="20" transform="translate(0.6 0.6)" fill="url(#linear-gradient)"/>
    <g id="Group_2562" data-name="Group 2562" transform="translate(10.677 9.142)">
      <path id="Path_11716" data-name="Path 11716" d="M33.017,47.849a2.011,2.011,0,0,1-1.95-1.454l-1.241-4.184a16.992,16.992,0,0,1-.674-5.816v-.284a5.248,5.248,0,0,1,.78-2.518l-.78-2.163a2.373,2.373,0,0,1,.674-2.589l1.95-1.738a2.348,2.348,0,0,1,1.6-.6h0l6.738.035L41,25.26a1.311,1.311,0,0,1,1.17-.567l4.007.284a1.31,1.31,0,0,1,1.135,1.809h0l-1.1,2.979a.488.488,0,0,0,.035.39l3.333,5.674a2.478,2.478,0,0,1,.284,1.667l-.532,2.553a2.382,2.382,0,0,1-1.915,1.879l-2.27.426a5.5,5.5,0,0,1-1.773,1.95l-.745.5a13.562,13.562,0,0,1-4.291,1.844c-1.6.39-3.652.887-4.823,1.17A2.512,2.512,0,0,1,33.017,47.849Zm.355-19.433a.4.4,0,0,0-.284.106l-1.95,1.738a.5.5,0,0,0-.142.5l.922,2.624a1.033,1.033,0,0,1-.142.957,3.279,3.279,0,0,0-.674,1.879V36.5a15.134,15.134,0,0,0,.6,5.177l1.206,4.149c0,.035.071.071.106.071,1.206-.284,3.227-.78,4.823-1.17a11.235,11.235,0,0,0,3.652-1.6l.745-.5a3.168,3.168,0,0,0,1.277-1.525,1.062,1.062,0,0,1,.745-.6l2.73-.5a.456.456,0,0,0,.355-.355l.5-2.553a.5.5,0,0,0-.035-.319l-3.333-5.674a2.466,2.466,0,0,1-.177-2.057l.851-2.234-2.837-.177-.851,1.241a1.313,1.313,0,0,1-1.1.567h0l-6.986-.035ZM44.684,42.459Zm.674-.567ZM30.074,34.019Zm.142-.851Zm9.716-6.383Z" transform="translate(-29.016 -24.689)" fill="#fff"/>
    </g>
  </g>
</svg>
