<svg xmlns="http://www.w3.org/2000/svg" xmlns:xlink="http://www.w3.org/1999/xlink" width="20" height="20" viewBox="0 0 20 20">
  <defs>
    <clipPath id="clip-path">
      <rect id="Rectangle_16943" data-name="Rectangle 16943" width="20" height="20" transform="translate(1291 145)" fill="#959eb1" stroke="#707070" stroke-width="1"/>
    </clipPath>
  </defs>
  <g id="Token" transform="translate(-1291 -145)" clip-path="url(#clip-path)">
    <g id="设备" transform="translate(1291 146.333)">
      <path id="Path_8738" data-name="Path 8738" d="M20.465,5.233H3.721A1.628,1.628,0,0,0,2.093,6.86v.853A1.628,1.628,0,0,0,3.721,9.341H20.465a1.628,1.628,0,0,0,1.628-1.628V6.86A1.628,1.628,0,0,0,20.465,5.233ZM3.721,6.628H20.465a.233.233,0,0,1,.233.233v.853a.233.233,0,0,1-.233.233H3.721a.233.233,0,0,1-.233-.233V6.86a.233.233,0,0,1,.233-.233Z" transform="translate(-2.093 -5.233)" fill="#959eb1"/>
      <path id="Path_8739" data-name="Path 8739" d="M20.465,5.233H3.721A1.628,1.628,0,0,0,2.093,6.86v.853A1.628,1.628,0,0,0,3.721,9.341H20.465a1.628,1.628,0,0,0,1.628-1.628V6.86A1.628,1.628,0,0,0,20.465,5.233ZM3.721,6.628H20.465a.233.233,0,0,1,.233.233v.853a.233.233,0,0,1-.233.233H3.721a.233.233,0,0,1-.233-.233V6.86a.233.233,0,0,1,.233-.233Z" transform="translate(-2.093 2.101)" fill="#959eb1"/>
      <path id="Path_8740" data-name="Path 8740" d="M20.465,5.233H3.721A1.628,1.628,0,0,0,2.093,6.86v.853A1.628,1.628,0,0,0,3.721,9.341H20.465a1.628,1.628,0,0,0,1.628-1.628V6.86A1.628,1.628,0,0,0,20.465,5.233ZM3.721,6.628H20.465a.233.233,0,0,1,.233.233v.853a.233.233,0,0,1-.233.233H3.721a.233.233,0,0,1-.233-.233V6.86a.233.233,0,0,1,.233-.233Z" transform="translate(-2.093 8.767)" fill="#959eb1"/>
    </g>
  </g>
</svg>
