<svg xmlns="http://www.w3.org/2000/svg" xmlns:xlink="http://www.w3.org/1999/xlink" width="20" height="20" viewBox="0 0 20 20">
  <defs>
    <clipPath id="clip-path">
      <rect id="Rectangle_16854" data-name="Rectangle 16854" width="20" height="20" transform="translate(360 8296)" fill="#fff" stroke="#707070" stroke-width="1"/>
    </clipPath>
  </defs>
  <g id="Mask_Group_82" data-name="Mask Group 82" transform="translate(-360 -8296)" clip-path="url(#clip-path)">
    <path id="twitter" d="M20,4.15a8.176,8.176,0,0,1-2.356.649,4.132,4.132,0,0,0,1.8-2.276,8.245,8.245,0,0,1-2.607,1,4.1,4.1,0,0,0-7.1,2.814,4.148,4.148,0,0,0,.106.938,11.637,11.637,0,0,1-8.456-4.3,4.13,4.13,0,0,0,1.27,5.493A4.1,4.1,0,0,1,.8,7.951V8A4.117,4.117,0,0,0,4.1,12.039a4.158,4.158,0,0,1-1.081.144,3.9,3.9,0,0,1-.773-.077,4.107,4.107,0,0,0,3.832,2.858,8.215,8.215,0,0,1-5.1,1.759A8.693,8.693,0,0,1,0,16.667a11.567,11.567,0,0,0,6.289,1.852A11.612,11.612,0,0,0,17.962,6.81l-.014-.533A8.2,8.2,0,0,0,20,4.15Z" transform="translate(360 8295.63)" fill="#fff"/>
  </g>
</svg>
