<svg xmlns="http://www.w3.org/2000/svg" xmlns:xlink="http://www.w3.org/1999/xlink" width="45" height="45" viewBox="0 0 45 45">
  <defs>
    <clipPath id="clip-path">
      <rect id="Rectangle_16773" data-name="Rectangle 16773" width="45" height="45" transform="translate(385 2166)" fill="#4d4d4d"/>
    </clipPath>
  </defs>
  <g id="Mask_Group_28" data-name="Mask Group 28" transform="translate(-385 -2166)" clip-path="url(#clip-path)">
    <g id="uniswap_1_" data-name="uniswap (1)" transform="translate(387.524 2165.686)">
      <path id="Path_8086" data-name="Path 8086" d="M15.739,10.548c-.49-.07-.513-.093-.28-.116a7.731,7.731,0,0,1,2.192.186,9.429,9.429,0,0,1,4.8,3.2l.42.487.606-.093a13.063,13.063,0,0,1,7.463.928,9.677,9.677,0,0,1,1.679.975,2.234,2.234,0,0,1,.163.65,3.917,3.917,0,0,1-.257,2.529.677.677,0,0,0-.07.743.7.7,0,0,0,.63.395c.56,0,1.143-.882,1.423-2.112l.117-.487.21.232A9.122,9.122,0,0,1,37.1,22.523l.047.348-.21-.3a3.927,3.927,0,0,0-1.12-1.184c-.793-.534-1.633-.7-3.848-.812a15.839,15.839,0,0,1-4.268-.65c-1.912-.627-2.892-1.439-5.154-4.433a21.358,21.358,0,0,0-2.262-2.646A7.925,7.925,0,0,0,15.739,10.548Z" fill="#ff007a"/>
      <path id="Path_8087" data-name="Path 8087" d="M33.111,13.5a5,5,0,0,1,.42-2,1.6,1.6,0,0,1,.21-.394c.023,0-.023.162-.093.348a4.411,4.411,0,0,0-.093,2.042c.163,1.044.233,1.183,1.353,2.321.513.534,1.12,1.207,1.353,1.485l.4.51-.4-.371a14.185,14.185,0,0,0-1.866-1.462c-.163-.093-.186-.093-.3.023-.093.093-.117.232-.117.905a4.952,4.952,0,0,1-.513,2.367c-.187.348-.21.278-.047-.116a3.365,3.365,0,0,0,.14-1.439c0-2.019-.233-2.506-1.656-3.319-.35-.209-.956-.511-1.306-.673a5.181,5.181,0,0,1-.63-.3,10.47,10.47,0,0,1,1.959.58c.816.325.956.348,1.05.325C33.041,14.262,33.088,14.076,33.111,13.5Z" fill="#ff007a"/>
      <path id="Path_8088" data-name="Path 8088" d="M16.691,16.955a8.171,8.171,0,0,1-1.469-4.99l.047-.487.233.046a5.485,5.485,0,0,1,1.493.557c.933.557,1.353,1.323,1.749,3.226.117.557.28,1.207.35,1.416a8.362,8.362,0,0,0,.933,1.671c.257.371.093.557-.49.511A4.78,4.78,0,0,1,16.691,16.955Z" fill="#ff007a"/>
      <path id="Path_8089" data-name="Path 8089" d="M31.926,27.051c-4.618-1.857-6.25-3.458-6.25-6.173,0-.394.023-.719.023-.719a4.354,4.354,0,0,1,.4.3c.933.743,1.983,1.068,4.9,1.485a20.393,20.393,0,0,1,3.568.743,6.792,6.792,0,0,1,4.991,5.407,9.34,9.34,0,0,1-.14,2.9,5.807,5.807,0,0,1-.746,1.671c-.023,0-.07-.116-.07-.3a3.77,3.77,0,0,0-1.353-2.622C36.264,28.907,35,28.28,31.926,27.051Z" fill="#ff007a"/>
      <path id="Path_8090" data-name="Path 8090" d="M28.656,27.816a5.475,5.475,0,0,0-.233-.975l-.117-.348.21.255a4.081,4.081,0,0,1,.746,1.346,2.882,2.882,0,0,1,.163,1.3,2.946,2.946,0,0,1-.163,1.253,4.2,4.2,0,0,1-.979,1.555,5.626,5.626,0,0,1-3.5,1.532c-.28.023-1.073.093-1.773.139a13.74,13.74,0,0,0-3.965.65c-.14.046-.28.093-.3.07A5.29,5.29,0,0,1,20,33.85a12.741,12.741,0,0,1,3.5-.928,16.063,16.063,0,0,0,2.076-.418A4.012,4.012,0,0,0,28.656,27.816Z" fill="#ff007a"/>
      <path id="Path_8091" data-name="Path 8091" d="M30.778,31.552a5.392,5.392,0,0,1-.42-3.76c.047-.116.093-.232.14-.232a1,1,0,0,1,.327.162c.28.186.863.511,2.356,1.323a11.906,11.906,0,0,1,3.708,2.715,5.727,5.727,0,0,1,1.236,2.808,9.164,9.164,0,0,1-.117,2.762,6.845,6.845,0,0,1-3.382,4.456,3.248,3.248,0,0,1-.49.232,1.838,1.838,0,0,1,.21-.511,4.586,4.586,0,0,0,.21-3.6,14.755,14.755,0,0,0-1.866-3.342A22.023,22.023,0,0,1,30.778,31.552Z" fill="#ff007a"/>
      <path id="Path_8092" data-name="Path 8092" d="M13.408,38.654a12.705,12.705,0,0,1,5.807-2.785,8.682,8.682,0,0,1,3.009.116,5.2,5.2,0,0,1,2.939,1.88,6.909,6.909,0,0,1,1.073,3.156c.093.627.21,1.276.233,1.416a3.11,3.11,0,0,0,1.026,1.833,3.565,3.565,0,0,0,3.218.093,1.581,1.581,0,0,1,.4-.116,3.57,3.57,0,0,1-1,.673,3.315,3.315,0,0,1-1.679.395,3.37,3.37,0,0,1-2.845-1.741,13,13,0,0,1-.77-1.532c-.816-1.88-1.236-2.437-2.192-3.063a2.886,2.886,0,0,0-2.729-.255,1.743,1.743,0,0,0-.606,2.715,2.389,2.389,0,0,0,1.329.7,1.42,1.42,0,0,0,1.609-1.416,1.111,1.111,0,0,0-.769-1.137c-.746-.325-1.563.046-1.539.766a.638.638,0,0,0,.443.627c.187.093.187.093.047.07a.859.859,0,0,1-.3-1.508,1.683,1.683,0,0,1,2.5.534,2.421,2.421,0,0,1,.047,1.578A2.184,2.184,0,0,1,19.985,42.9a3.8,3.8,0,0,1-2.029-1.369,6.207,6.207,0,0,0-4.595-2.344l-.443-.07Z" fill="#ff007a"/>
      <path id="Path_8093" data-name="Path 8093" d="M1.137,1.312C6.571,7.88,14.944,18.091,15.364,18.648c.35.464.21.905-.373,1.23a3.582,3.582,0,0,1-1.329.371,1.687,1.687,0,0,1-1.12-.487c-.21-.209-1.119-1.532-3.172-4.711C7.807,12.614,6.478,10.6,6.455,10.572c-.093-.046-.093-.046,2.752,5.013a40.553,40.553,0,0,1,2.379,4.456c0,.3-.093.464-.466.882A5.15,5.15,0,0,0,10,24.055c-.233,1.833-.863,3.133-2.659,5.338a9.546,9.546,0,0,0-1.469,2.065,3.909,3.909,0,0,0-.466,1.857,5.78,5.78,0,0,0,.3,2.274,7.739,7.739,0,0,0,1.119,2.181,5.388,5.388,0,0,1,.863,1.694c0,.186.047.186.886,0a9.242,9.242,0,0,0,4.571-2.228,2.094,2.094,0,0,0,.7-1.764,1.885,1.885,0,0,0-.163-.975,4.177,4.177,0,0,0-1.633-1.578,3.67,3.67,0,0,1-1.936-2.483c-.117-.789.023-1.323.723-2.785a8.3,8.3,0,0,0,1.026-3.667c.07-.975.187-1.369.466-1.671a1.743,1.743,0,0,1,1.283-.534,4.287,4.287,0,0,0,2.565-1.044,2.177,2.177,0,0,0,.793-1.694L17,18.509l-.3-.325C15.6,16.931.414.314.344.314.321.314.694.755,1.137,1.312Zm7.16,33a.955.955,0,0,0-.3-1.276c-.4-.255-1-.139-1,.209a.237.237,0,0,0,.187.232c.21.116.233.232.07.487s-.163.487.047.65A.669.669,0,0,0,8.3,34.313Z" fill="#ff007a" fill-rule="evenodd"/>
      <path id="Path_8094" data-name="Path 8094" d="M17.74,22.107a2.064,2.064,0,0,0-1.259,1.369A1.99,1.99,0,0,0,16.6,24.73c.257.325.49.418,1.143.418,1.283,0,2.379-.557,2.5-1.23a1.793,1.793,0,0,0-1.049-1.671A2.381,2.381,0,0,0,17.74,22.107Zm1.493,1.16A.521.521,0,0,0,19,22.479c-.63-.395-1.586-.07-1.586.534,0,.3.49.627.956.627A1.291,1.291,0,0,0,19.233,23.268Z" fill="#ff007a" fill-rule="evenodd"/>
    </g>
  </g>
</svg>
