<?xml version="1.0" encoding="utf-8"?>
<!-- Generator: Adobe Illustrator 24.1.1, SVG Export Plug-In . SVG Version: 6.00 Build 0)  -->
<svg version="1.1" id="Layer_1" xmlns="http://www.w3.org/2000/svg" xmlns:xlink="http://www.w3.org/1999/xlink" x="0px" y="0px"
	 viewBox="0 0 400 400" style="enable-background:new 0 0 400 400;" xml:space="preserve">
<style type="text/css">
	.st0{fill:#FFFFFF;}
	.st1{fill:#FF007A;}
</style>
<circle class="st0" cx="200" cy="200" r="200"/>
<path class="st1" d="M200,0c-43.3,0-83.4,13.8-116.2,37.2c32.9,36.1,67.5,74.3,72.1,79.6l2.5,2.7l-0.2,4.4c-0.2,5.9-2.1,9.9-6.5,14
	c-5,4.8-11.3,7.3-21,8.6c-5.9,0.8-8,1.7-10.5,4.4c-2.3,2.5-3.2,5.7-3.8,13.8c-1,12.6-2.5,17.8-8.4,30.2c-5.7,12-6.9,16.4-5.9,22.9
	c1.1,7.6,5.5,13.4,15.9,20.4c7.8,5.4,11.5,8.8,13.4,13c1.1,2.7,1.3,3.6,1.3,8c0,6.9-1.1,9.6-5.7,14.5c-7.5,8-21,14.5-37.5,18.3
	c-6.9,1.5-7.3,1.5-7.3,0c0-1.9-2.7-7.1-7.1-14c-5.2-7.8-7.3-11.8-9.2-18c-2.1-6.9-2.9-11.5-2.5-18.7c0.4-6.9,1.1-9.9,3.8-15.3
	c2.1-4.4,3.4-6.3,12-17c14.7-18.2,19.9-28.9,21.8-44c1.7-13.6,4-20.1,9.2-25.8c3.1-3.4,3.8-4.8,3.8-7.3c0-1.1-4.8-10.5-19.5-36.7
	C71.2,53.7,71.2,53.7,72,54.1c0.2,0.2,11.1,16.8,23.9,36.9c16.8,26.2,24.3,37.1,26,38.8c2.5,2.5,6.1,4,9.2,4c2.7,0,8.2-1.5,10.9-3.1
	c4.8-2.7,5.9-6.3,3.1-10.1c-2.2-3-32.4-40-65.4-80.3C31.3,76.8,0,134.7,0,200c0,110.5,89.5,200,200,200s200-89.5,200-200
	S310.5,0,200,0z M264.6,77.6c0.4-0.4,11.7,2.9,16.1,4.8c6.7,2.7,7.8,2.9,8.6,2.7c0.6-0.6,1-2.1,1.1-6.9c0.4-7.3,1.3-12,3.4-16.4
	c0.8-1.7,1.5-3.2,1.7-3.2s-0.2,1.3-0.8,2.9c-1.5,4.2-1.7,10.1-0.8,16.8c1.3,8.6,1.9,9.7,11.1,19.1c4.2,4.4,9.2,9.9,11.1,12.2
	l3.2,4.2l-3.2-3.1c-4-3.8-13.2-11.1-15.3-12c-1.3-0.8-1.5-0.8-2.5,0.2c-0.8,0.8-1,1.9-1,7.5c-0.2,8.6-1.3,14-4.2,19.5
	c-1.5,2.9-1.7,2.3-0.4-1c1-2.5,1.1-3.6,1.1-11.8c0-16.6-1.9-20.6-13.6-27.3c-2.9-1.7-7.8-4.2-10.7-5.5
	C266.7,78.8,264.4,77.6,264.6,77.6z M145.8,53c3.6-0.6,12,0.2,18,1.5c13.8,3.2,26.2,11.7,39.4,26.4l3.4,4l5-0.8
	c21.2-3.4,43-0.8,61.2,7.6c5,2.3,12.8,6.9,13.8,8c0.4,0.4,1,2.9,1.3,5.4c1.3,9,0.8,15.7-2.1,20.8c-1.5,2.9-1.5,3.6-0.6,6.1
	c0.8,1.9,3.1,3.2,5.2,3.2c4.6,0,9.4-7.3,11.7-17.4l1-4l1.7,1.9c9.7,10.9,17.4,26,18.5,36.7l0.4,2.9l-1.7-2.5
	c-2.9-4.4-5.5-7.3-9.2-9.7c-6.5-4.4-13.4-5.7-31.5-6.7c-16.4-1-25.8-2.3-35-5.4c-15.7-5.2-23.7-11.8-42.2-36.5
	c-8.2-10.9-13.4-16.8-18.5-21.8c-11.3-10.9-22.6-16.6-37.3-18.9C144,53.3,143.9,53.2,145.8,53z M253.9,196.1c-0.4-2.9-1.3-6.5-1.9-8
	l-1-2.9l1.7,2.1c2.5,2.9,4.4,6.3,6.1,11.1c1.3,3.6,1.3,4.8,1.3,10.7c0,5.7-0.2,7.1-1.3,10.3c-1.9,5.2-4.2,8.8-8,12.8
	c-6.9,7.1-15.9,10.9-28.7,12.6c-2.3,0.2-8.8,0.8-14.5,1.1c-14.3,0.8-23.9,2.3-32.5,5.4c-1.1,0.4-2.3,0.8-2.5,0.6
	c-0.4-0.4,5.5-3.8,10.3-6.1c6.7-3.2,13.6-5,28.7-7.6c7.5-1.1,15.1-2.7,17-3.4C247.6,228.8,257,214.1,253.9,196.1z M155.9,106.7
	c-8-11.1-13.2-28.3-12-41.1l0.4-4l1.9,0.4c3.4,0.6,9.4,2.9,12.2,4.6c7.6,4.6,11.1,10.9,14.3,26.6c1,4.6,2.3,9.9,2.9,11.7
	c1,2.9,4.6,9.6,7.6,13.8c2.1,3.1,0.8,4.6-4,4.2C171.9,122,162.2,115.3,155.9,106.7z M154.2,160.4c1.3-5,5.7-9.9,10.3-11.3
	c3.1-1,9-0.4,11.8,1.1c5.5,2.9,9.6,9.2,8.6,13.8c-1,5.5-9.9,10.1-20.4,10.1c-5.4,0-7.3-0.8-9.4-3.4
	C153.8,169,153.4,163.4,154.2,160.4z M265.8,337c-4.8,2.5-8.6,3.2-13.8,3.2c-9.2,0-17-4.8-23.3-14.3c-1.3-1.9-4-7.5-6.3-12.6
	c-6.7-15.5-10.1-20.1-18-25.2c-6.9-4.4-15.7-5.4-22.4-2.1c-8.8,4.2-11.1,15.5-5,22.4c2.5,2.9,7.1,5.2,10.9,5.7
	c7.1,1,13.2-4.6,13.2-11.7c0-4.6-1.7-7.3-6.3-9.4c-6.1-2.7-12.8,0.4-12.6,6.3c0,2.5,1.1,4,3.6,5.2c1.5,0.8,1.5,0.8,0.4,0.6
	c-5.5-1.1-6.9-8-2.5-12.4c5.4-5.4,16.6-3.1,20.4,4.4c1.5,3.1,1.7,9.2,0.4,13c-3.2,8.4-12.4,12.8-21.8,10.3c-6.3-1.7-9-3.4-16.6-11.3
	c-13.4-13.8-18.5-16.4-37.6-19.3l-3.6-0.6l4-3.8c14.1-11.8,31.5-20.3,47.6-22.9c6.9-1.1,18.3-0.8,24.7,1
	c10.1,2.7,19.3,8.4,24.1,15.5c4.6,6.9,6.7,12.8,8.8,26c0.8,5.2,1.7,10.5,1.9,11.7c1.5,6.9,4.6,12.2,8.4,15.1
	c5.9,4.4,16.2,4.6,26.4,0.8c1.7-0.6,3.2-1.1,3.2-1C274.4,331.8,269.2,335.2,265.8,337z M330.6,274.5c-4.2,16.2-13.8,29.2-27.7,36.7
	c-2.1,1.1-3.8,1.9-4,1.9s0.6-1.9,1.7-4.2c4.6-9.7,5.2-19.1,1.7-29.6c-2.1-6.5-6.5-14.3-15.3-27.5c-10.5-15.3-13-19.3-15.7-24.8
	c-5-10.9-6.1-21.2-3.4-31c0.4-1,0.8-1.9,1.1-1.9c0.4,0,1.5,0.6,2.7,1.3c2.3,1.5,7.1,4.2,19.3,10.9c15.5,8.4,24.3,14.9,30.4,22.4
	c5.4,6.5,8.6,14,10.1,23.1C332.5,256.9,331.9,269.3,330.6,274.5z M335.9,236.1c-0.2,0-0.6-1-0.6-2.5c-0.4-8-4.4-15.7-11.1-21.6
	c-8-6.9-18.3-12-43.6-22.2c-37.8-15.3-51.2-28.5-51.2-50.8c0-3.2,0.2-5.9,0.2-5.9c0.2,0,1.5,1.1,3.2,2.5c7.6,6.1,16.2,8.8,40.1,12.2
	c14,2.1,22,3.6,29.2,6.1c23.1,7.6,37.5,23.3,40.9,44.5c1,6.1,0.4,17.8-1.1,23.9C340.7,227.1,336.9,235.9,335.9,236.1z"/>
</svg>
