<svg xmlns="http://www.w3.org/2000/svg" xmlns:xlink="http://www.w3.org/1999/xlink" width="45" height="45" viewBox="0 0 45 45">
  <defs>
    <clipPath id="clip-path">
      <rect id="Rectangle_16773" data-name="Rectangle 16773" width="45" height="45" transform="translate(385 2166)" fill="#4d4d4d"/>
    </clipPath>
    <clipPath id="clip-path-2">
      <rect id="Rectangle_16801" data-name="Rectangle 16801" width="45" height="40.814" fill="#fff"/>
    </clipPath>
  </defs>
  <g id="Mask_Group_27" data-name="Mask Group 27" transform="translate(-385 -2166)" clip-path="url(#clip-path)">
    <g id="viperswap" transform="translate(385 2168.093)" clip-path="url(#clip-path-2)">
      <path id="Path_8078" data-name="Path 8078" d="M17.944,34.433c16.405-4.4,19.042-9.974,19.042-9.974-3.661,4.4-17.615,7.7-17.615,7.7Z" fill="#fff"/>
      <path id="Path_8079" data-name="Path 8079" d="M40.1,14.632S37.592,4.867,29.661,3.741,17.811,4.8,17.811,4.8L17.1,6.453a1.462,1.462,0,0,1-1.264,1.064l-2.006-.188a2.476,2.476,0,0,0-.8.219c-1.111.512-4.32,1.994-5.678,2.537-1.648.66-5.584,1.8-3.387,4,0,0-.549-1.65,2.2-2.53s9.228-2.42,11.1-1.21-.775,10.34-1.655,10.34H12.964s1.868,1.76,3.516,1.21a4.064,4.064,0,0,0,2.082-1.21s1.537-8.035,2.306-9.13S36.363,6.381,40.1,14.632ZM20.049,10.341l-.275-.828C31.017,5.977,36.09,9.9,36.09,9.9,28.343,6.931,20.049,10.341,20.049,10.341Z" fill="#fff"/>
      <path id="Path_8080" data-name="Path 8080" d="M16.552,11.7s-2.637-.371-5.2,2.787C8.622,17.842,6.369,23.432.983,23.652c0,0,2.895.954,4.872,0A9.778,9.778,0,0,1,0,26.219s5.155.506,7.616-2.933C10.692,18.989,11.352,13.237,16.552,11.7Z" fill="#fff"/>
      <path id="Path_8081" data-name="Path 8081" d="M4.1,15.98a7.521,7.521,0,0,0,1.321.575A10.283,10.283,0,0,1,4.138,14.8l-.883-.341-.879-1.409a6.93,6.93,0,0,0,.358,1.368c-.523-.756-.885-1.64-.431-2.323.988-1.483,5.823-2.75,7.251-3.74.946-.656,3.809-2.3,5.415-3.48a9.3,9.3,0,0,1,3.269-1.536C44.82-3.289,42.405,20.681,42.405,20.681,44.751,4.218,33.726,0,26.482,0S13.952,2.53,13.624,2.86a30.583,30.583,0,0,1-4.614,4.4C7.252,8.361.88,10.011.986,12.322,1.088,14.392,3.583,15.726,4.1,15.98Z" fill="#fff"/>
      <path id="Path_8082" data-name="Path 8082" d="M5.273,12.722a4.363,4.363,0,0,0,4.138,1.36c-1.391-.147-2.27-2.4-2.27-2.4C5.383,12,5.273,12.722,5.273,12.722Zm3,1.176a3.521,3.521,0,0,1-2.563-1.36l.4-.33A4.308,4.308,0,0,0,8.275,13.9Z" fill="#fff"/>
      <path id="Path_8083" data-name="Path 8083" d="M43.651,11.685S47.9,25.192,36.985,33.333l-.895,3.813S49.143,28.1,43.651,11.685Z" fill="#fff"/>
      <path id="Path_8084" data-name="Path 8084" d="M16.076,18.225s1.318-3.855.953-5.5c0,0-.769,4.513-2.417,6.089l-2.2.4a19.521,19.521,0,0,0,2.71.44C15.893,19.655,16.076,18.225,16.076,18.225Z" fill="#fff"/>
      <path id="Path_8085" data-name="Path 8085" d="M38.963,27.369C42.452,20.338,37.5,10.744,21.856,14.8c0,0,13.371-2.6,16.155,5.253,3.837,10.818-17.138,15.7-22.343,16.575l-3.259,4.181S35.185,34.983,38.963,27.369Z" fill="#fff"/>
    </g>
  </g>
</svg>
