<svg xmlns="http://www.w3.org/2000/svg" xmlns:xlink="http://www.w3.org/1999/xlink" width="20" height="20" viewBox="0 0 20 20">
  <defs>
    <clipPath id="clip-path">
      <rect id="Rectangle_16943" data-name="Rectangle 16943" width="20" height="20" transform="translate(1291 145)" fill="#959eb1" stroke="#707070" stroke-width="1"/>
    </clipPath>
  </defs>
  <g id="Widget" transform="translate(-1291 -145)" clip-path="url(#clip-path)">
    <path id="分类" d="M9.643,3.214H5.833A2.619,2.619,0,0,0,3.214,5.833v3.81a2.619,2.619,0,0,0,2.619,2.619h3.81a2.619,2.619,0,0,0,2.619-2.619V5.833A2.619,2.619,0,0,0,9.643,3.214ZM5.833,4.643h3.81a1.19,1.19,0,0,1,1.19,1.19v3.81a1.19,1.19,0,0,1-1.19,1.19H5.833a1.19,1.19,0,0,1-1.19-1.19V5.833a1.19,1.19,0,0,1,1.19-1.19ZM20.6,3.214h-3.81a2.619,2.619,0,0,0-2.619,2.619v3.81a2.619,2.619,0,0,0,2.619,2.619H20.6a2.619,2.619,0,0,0,2.619-2.619V5.833A2.619,2.619,0,0,0,20.6,3.214Zm-3.81,1.429H20.6a1.19,1.19,0,0,1,1.19,1.19v3.81a1.19,1.19,0,0,1-1.19,1.19h-3.81a1.19,1.19,0,0,1-1.19-1.19V5.833a1.19,1.19,0,0,1,1.19-1.19ZM9.643,13.69H5.833A2.619,2.619,0,0,0,3.214,16.31v3.81a2.619,2.619,0,0,0,2.619,2.619h3.81a2.619,2.619,0,0,0,2.619-2.619V16.31A2.619,2.619,0,0,0,9.643,13.69Zm-3.81,1.429h3.81a1.19,1.19,0,0,1,1.19,1.19v3.81a1.19,1.19,0,0,1-1.19,1.19H5.833a1.19,1.19,0,0,1-1.19-1.19V16.31a1.19,1.19,0,0,1,1.19-1.19Zm16.19-.714a.714.714,0,0,1,.069,1.425l-.069,0H15.357a.714.714,0,0,1-.069-1.425l.069,0Zm-1.9,3.1a.714.714,0,0,1,.069,1.425l-.069,0H15.357a.714.714,0,0,1-.069-1.425l.069,0h4.762Zm-1.9,3.1a.714.714,0,0,1,.069,1.425l-.069,0H15.357a.714.714,0,0,1-.069-1.425l.069,0Z" transform="translate(1287.786 142.024)" fill="#959eb1"/>
  </g>
</svg>
