<svg xmlns="http://www.w3.org/2000/svg" xmlns:xlink="http://www.w3.org/1999/xlink" width="20" height="20" viewBox="0 0 20 20">
  <defs>
    <clipPath id="clip-path">
      <rect id="Rectangle_16864" data-name="Rectangle 16864" width="20" height="20" transform="translate(360 8727)" fill="#f5f5f5" stroke="#707070" stroke-width="1"/>
    </clipPath>
  </defs>
  <g id="Mask_Group_73" data-name="Mask Group 73" transform="translate(-360 -8727)" clip-path="url(#clip-path)">
    <path id="world" d="M10.019,0a10,10,0,1,0,10,10A10.011,10.011,0,0,0,10.019,0ZM1.225,10.588H4.68a13.84,13.84,0,0,0,.6,3.529H2.221a8.736,8.736,0,0,1-1-3.529ZM4.68,9.412H1.225a8.736,8.736,0,0,1,1-3.529H5.28a13.835,13.835,0,0,0-.6,3.529ZM6.526,5.882h6.936a12.682,12.682,0,0,1,.669,3.529H5.856a12.639,12.639,0,0,1,.669-3.529Zm-.669,4.706h8.276a12.729,12.729,0,0,1-.673,3.529H6.529a12.686,12.686,0,0,1-.673-3.529Zm9.453,0h3.5a8.737,8.737,0,0,1-1,3.529H14.706a13.84,13.84,0,0,0,.6-3.529Zm0-1.176a13.835,13.835,0,0,0-.6-3.529h3.107a8.774,8.774,0,0,1,1,3.529h-3.5Zm1.752-4.706H14.292a14.341,14.341,0,0,0-1.824-3.176,8.847,8.847,0,0,1,4.593,3.176Zm-6.386-3.5A13.325,13.325,0,0,1,13,4.706h-6A13.294,13.294,0,0,1,9.311,1.212c.234-.018.468-.035.708-.035.221,0,.439.018.656.033Zm-3.166.335A14.309,14.309,0,0,0,5.7,4.706H2.975A8.845,8.845,0,0,1,7.509,1.545ZM2.975,15.294H5.7a14.287,14.287,0,0,0,1.82,3.164,8.835,8.835,0,0,1-4.546-3.164Zm6.349,3.494A13.359,13.359,0,0,1,7,15.294h5.993a13.327,13.327,0,0,1-2.328,3.5c-.213.015-.427.033-.644.033-.235,0-.465-.018-.694-.035Zm3.131-.314a14.325,14.325,0,0,0,1.832-3.18h2.774a8.845,8.845,0,0,1-4.606,3.18Z" transform="translate(359.98 8727)" fill="#f5f5f5"/>
  </g>
</svg>
